<svg width="123" height="94" fill="none" xmlns="http://www.w3.org/2000/svg"><path d="M109.432 70.699c-.885.698-1.258 1.677-1.444 2.748-.094.605-.653.699-1.072.792-.372.093-.698.093-.978.419-.14.14-.512.14-.652.046-.512-.325-1.071-.558-1.537-.931-1.63-1.444-2.841-3.26-4.006-5.077-1.164-1.863-2.375-3.727-3.26-5.73-.28-.651-.28-.605.419-1.117.559 1.071 1.071 2.142 1.677 3.214.465.838 1.071 1.583 1.676 2.468.14-.326.14-.559-.093-.885-1.164-1.677-2.282-3.4-3.167-5.403.14-.093.326-.186.466-.326.046.047.14.093.28.233v-.699c.418-.093.791-.14 1.303-.28.373.187.56.84 1.211.932 0 .7.559 1.025.885 1.538.373.605.885 1.164 1.258 1.63.419-.047.699-.093 1.025-.14 1.071-.093 1.071-.046 1.723.559.746.652 1.258 1.584 2.236 2.003.047.047.14.14.14.186.046.699.419.932 1.071 1.118.559.14.699.699.745 1.258-.046.419.047.838.094 1.444zM13.386-9.604c.791.373.791.373 1.164-.419.512-.186 1.164.187 1.63-.28.56.14 1.072.327 1.63.373.886.14 1.351.792 1.817 1.351.326.373.699.792.978 1.211.373.513.792.932 1.165 1.444.326.466.605.932.885 1.398.093.14.186.279.186.419-.047.372.093.605.373.885.512.512.466 1.257.652 1.863.14.605.046 1.258 0 1.91 0 .233-.047.745-.56.372-.046-.046-.232.187-.325.233-.14.093-.373.233-.42.187-.558-.513-.698-.14-.93.326-.374.698-.607.652-1.631.465-.606-.093-1.258-.14-1.63-.652-.979-1.444-1.957-2.888-2.097-4.704-.046-.745-.279-1.49-.884-2.05-.513-.465-.885-1.118-1.584-1.35-.233-.094-.373-.327-.56-.513-.372-.42-.558-.838-.558-1.444 0-.559.466-.699.699-1.025zm82.351 48.116c-.605-.605-1.164-1.257-1.77-1.77-1.77-1.444-2.608-3.54-3.68-5.45-.465-.885-.326-1.816-.326-2.794 0-.14.233-.326.373-.513.186.373.326.699.606 1.165v-1.724c.372-.186.745-.28.978-.512.326-.28.652-.233.931-.14.326.093.606.373.932.56-.186.93.186 1.676.606 2.468.419-.093.885.186 1.257-.233.093-.093.373-.093.466 0 .978.605 2.19.885 2.655 2.096.093.233.186.512.373.606.28.14.046.605.465.605.373 0 .14.42.187.606.093.28.186.512.233.791.046.233 0 .513 0 .746-.978.838-1.584 1.91-2.096 3.074-.653.186-1.444.28-2.19.42zM10.218 13.639v2.748c.233-.699.186-1.397.233-2.096 0-.28-.14-.605.233-.792a4.272 4.272 0 011.071-.419c.14 0 .373.28.466.466.093.233 0 .466 0 .745.233-.093.326-.186.466-.186.233.046.559.233.652.14.652-.466 1.397-.187 2.05-.187.325 0 .791.187.931.42.373.605 1.118.791 1.49 1.537 0 .326.047.698.373 1.117.42.56.792 1.211.652 2.003-.046.373 0 .746 0 1.211-.885.513-1.77 1.025-2.608 1.584-.885.606-1.724.186-2.516-.233-.558-.28-1.304-.419-1.49-1.21-1.258-.56-1.49-1.91-2.143-2.889-.465-.652-.419-1.444-.559-2.142-.093-.606.326-1.258.513-1.91 0 .046.093.046.186.093zM34.765 27.38l-1.723-1.723c0-.42-.047-.932 0-1.398.047-.186.28-.372.466-.465.093-.047.28.14.419.186.186-.373.28-.838.931-.745.094 0 .28.046.373-.047.326-.233.652-.512 1.025-.42.699.187 1.49.327 2.05.793 1.117.978 2.142 2.05 2.701 3.447.326.838.605 1.723.792 2.561.046.373-.047.932-.466 1.212-.699.512-1.397 1.07-2.143 1.537a1.22 1.22 0 01-.885.233c-1.863-.14-3.167-1.025-3.726-3.121-.093-.326-.28-.606-.233-.885.047-.373.28-.746.42-1.165zm3.168 45.88c-.047-.233-.093-.512-.14-.745 0 1.025-1.071 1.397-1.304 2.236-.093.326-.56.465-.745.28-.327-.28-.513-.094-.7.046-.465.28-.838.28-1.303 0-1.351-.792-2.748-1.537-3.54-2.981-.979-.513-1.258-1.584-1.864-2.376-.279-.373-.372-.931-.605-1.444.373-.512.885-.373 1.49-.046-.046-.28-.046-.56-.186-.746-.186-.233 0-.326.093-.372.42-.187.885-.326 1.258-.652.093-.094.326-.047.512 0 .28.093.513.279.839 0 .093-.094.372.093.559.14 1.537.651 2.934 1.49 3.82 3.027.139.186.418.42.605.606.605.558.698 1.35 1.164 1.956.326.326.233.652.047 1.071zm77.135-59.202c.046-.232.046-.465.093-.745.093.047.186.093.186.14.326.792.745 1.537.932 2.422.139.559.279 1.071-.233 1.444-.373.28 0 1.118-.792 1.071-.373.606-.978.56-1.537.513-.14.419-.233.791-.373 1.164-.186.373-.792.512-1.444.326-.139-.047-.279-.186-.419-.186-1.071.093-1.071.093-1.49-.745-.233-.42-.513-.792-.653-1.258-.232-.512-.559-.885-1.071-1.071-.792-.326-1.304-1.025-1.444-1.864-.14-.745.233-1.444.885-1.956.326.42.652.838 1.118 1.444v-1.444c0-.42.047-.326.699-.605.466-.187 1.118.046 1.397-.606.466 0 .932-.046 1.397-.046.839-.047 1.584.046 2.003.978.047.372.42.652.746 1.024zM83.347 78.617c-.652 0-1.257-.186-1.584.512-.558-.698-.605-1.21-.046-1.77.373-.372.606-.885 1.118-1.21.42-.28.559-.932.931-1.352.28-.325.7-.512 1.072-.745l.419.42c-.186.14-.42.279-.606.419 0 .046.047.093.047.14.28-.047.559-.094.885-.14.093.14.186.465.42.559 1.303.652 2.142 1.816 2.887 2.934.28.373.326.885.56 1.304.511 1.025.651 1.211.511 2.19-.093.698-.232 1.397-.791 1.956-.233.233-.42.512-.466.838-.047.699-.42.839-.978.792-.14 0-.326 0-.466.047-.978.28-1.118.233-1.584-.513-.745-1.118-1.071-2.422-1.537-3.68-.326-.884-.559-1.816-.792-2.701zM67.184 64.69c-.698-.42-1.397-.745-2.002-1.35-1.072-1.072-2.236-2.097-3.215-3.261-1.024-1.211-2.142-2.422-2.748-3.82.047-.559.792.047.792-.605 0-.187.466-.373.745-.56.653-.465.979-.512 1.444-.046.466.466.979.652 1.584.792.932.186 1.584.931 2.376 1.35.838.467 1.444 1.212 2.142 1.864.373.326.792.605 1.118.978.326.373.606.839.699 1.304.046.28-.14.699-.373.978-.28.327-.372.746-.838.932-.28.093-.233.373-.28.652-.046.28-.14.652-.652.28-.372-.28-.652.093-.792.512zm51.144-7.36c-1.444-.605-2.049-1.723-2.701-2.794-.559-.932-1.025-1.957-1.444-2.935-.42-1.025-1.118-1.956-.792-3.26.931.651.838 1.863 1.723 2.654-.139-1.304-.838-2.282-1.164-3.633.466.233.652.326.838.466l.14-.699c.373-.093.745-.14 1.211-.232.14.186.279.465.466.745.698 1.024.745 1.024 2.049 1.49.14.047.28.14.419.233 1.025.652 1.91 1.351 2.469 2.469.186.42.466 1.164.466 1.584 0 .093.093.233.14.326.186.233.093.419-.093.512-.559.326-.839.978-1.305 1.35-.233.14-.233.373-.279.653-.047.373-.745.838-1.118.745-.186-.046-.326-.42-.606-.14-.186.14-.279.327-.419.466zM77.199 27.753c-.233.046-.466.093-.792.14.14.232.233.419.326.605L74.87 30.36h-.373c-1.444.28-2.375-.559-3.167-1.537-.606-.745-1.165-1.584-1.584-2.515-.28-.56-.466-1.118-.326-1.864.42.932.838 1.817 1.211 2.655.047 0 .14-.046.186-.046-.046-.14-.046-.326-.093-.466a30.58 30.58 0 01-.791-1.816c-.094-.28-.327-.606.232-.746.187-.046.28-.419.42-.652.14-.186.232-.419.326-.559.605-.046.605.466.978.699a17.235 17.235 0 01-.28-1.071c.187-.14.466-.373.699-.56.14.14.373.42.559-.046.233-.512.512-.699 1.025-.372.046.046.14.046.186.046.605-.466.932 0 1.211.373.652.885.978 1.956 1.35 2.98.094.234.28.793-.372.84-.046 0-.046.232-.093.325.14.047.373.14.42.093a.304.304 0 01.558.187c-.186.372.326.885.047 1.444zM72.588.644l.512.512c.046-.373.093-.652.093-.978.512-.093 1.071-.233 1.63-.326a3.775 3.775 0 011.025 0c.233.046.047.512.512.559.326.046.56.559.746.885.186.28-.093.931.559.885 0 .419.046.838.046 1.257v.14l1.91 1.91c.186 0 .42-.047.605 0 .326.046.653.373.513.559-.373.42.28.745.046 1.071-.978.28-1.304.326-2.096.186.187.42.373.792.606 1.305-.14.14-.28.419-.466.419-1.025 0-2.143.28-3.074-.466-.233-.186-.56-.373-.745-.605-.466-.56-.839-1.165-1.258-1.77-.186-.28-.373-.606-.559-.885-.28-.466-.233-1.118-.745-1.444.093-.56-.233-.979-.42-1.444-.326-.792-.14-1.398.56-1.77zM31.365 43.403c.186.28.326.512.606.932.046-.42.093-.606.093-.746.046-.512.046-.512.698-.559.094 0 .187 0 .233-.046.28-.466.746-.606 1.211-.466.513.14 1.072.373 1.49.699 1.585 1.304 2.516 3.12 3.215 4.984.14.326 0 .745 0 1.071-.187 0-.326-.047-.466-.047.047.466-.093.792-.605.885-.14.047-.373.28-.373.42-.047.559-.606.28-.792.559-.326-.513-.838.093-1.211-.233-.326-.326-.792-.606-1.025-1.025-.512-.885-.978-1.817-1.257-2.748-.14-.513-.373-.839-.746-1.025-.605-.373-1.117-.838-1.397-1.49-.326-.513-.373-.513.326-1.165zm23.802-14.765c0-.14-.047-.28 0-.466.047-.093.186-.187.233-.28 0-.093-.093-.232-.093-.372 0-.093.14-.233.14-.326-.047-.14-.187-.28-.28-.373-.093-.047-.233-.047-.373-.093.094.28.14.512.187.699-.466-.28-.932-.513-.746-1.165.187.093.373.14.606.233.093-.792-.652-.373-.932-.745.42.046.699-.233 1.118-.187.187.047.466-.372.745-.652.42.326.886.699 1.398 1.165.046-.326.093-.56.14-.839.605-.14 1.257-.232 1.863-.372.326.419.559.792.885 1.118.28.28.652.465.885.745.745.792 1.071 1.863 1.35 2.841.094.373.233.932-.465 1.025 0 .652-.699.745-1.025 1.211-.42.512-1.118.605-1.863.326-1.118-.466-1.91-1.35-2.609-2.236a5.056 5.056 0 01-1.164-1.257zm20.914 16.489c.186.046.42.14.652.233.047-1.072-1.071-1.351-1.211-2.33.233.094.42.14.559.234.233.186.373.372.652.652-.093-.513-.14-.652-.466-1.025.652-.792.652-.792 1.444-.792.42.466.792 1.118 1.351 1.49.606.373.792 1.025 1.258 1.491.419.42.698 1.025 1.024 1.584.14.326.28.699.233 1.025-.046.419-.233 1.024-.512 1.117-.466.187-.373.513-.512.839-.187.373-.466.792-.979.885-.28.047-.652.28-.885.186a4.6 4.6 0 01-1.49-.978c-.745-.792-1.397-1.677-2.05-2.562-.14-.233-.093-.605-.14-1.071.234.186.28.233.466.373-.14-.746.42-.979.606-1.351zM69.42 91.706c-.326-.187-.512-.28-.698-.373-.28 1.025-.373 1.071-1.212.698.233.513.42.932.606 1.398-.233.14-.466.28-.652.373l-1.304-1.305c-.28.606.465.885.419 1.49-.699.094-1.072-.372-1.444-.791-.233-.233-.326-.559-.56-.792a25.956 25.956 0 01-2.7-3.214l-.28-.28c-.512-.465-1.025-.93-1.071-1.676.512-.28.745.186 1.07.466.327-.56-.465-.652-.418-1.072.046-.512.978.14.745-.698h1.397c.373.28.792.559 1.165.838.372.28.652.699 1.118.932.466.233.791.745 1.164 1.118.28.233.42.558.885.652.326.093.466.559.932.466.14 0 .372.232.419.372.233.466.28.792.42 1.397zm-8.757-84.96c.42.046.746-.187 1.118.093-.186.093-.372.14-.512.186.14.512.326 1.025.42 1.537.046.14-.047.373-.14.42-.513.232-.653.745-1.072 1.07-.186.14-.42.187-.652.187-.093 0-.233-.14-.373-.14-.14 0-.28.14-.419.233-.233-.792-.186-.792-1.071-1.071-.513-.186-.606-.699-.978-.978-.093.186-.14.326-.233.512-.14-.14-.326-.28-.326-.373 0-1.49 0-1.537-.699-2.468-.373.698.373 1.071.42 1.77-.187-.047-.467 0-.513-.093-.326-.792-.839-1.538-.326-2.47.14-.279.186-.465.559-.465.233 0 .465-.14.652-.233.512-.326.978-.652 1.537-1.025.14.187.233.373.186.327.42.279.885-.513.932.326 0 .232.559-.326.559.28 0 .232.419.465.652.698-.093.186-.14.419-.233.605.047.047.14.093.186.14.093-.233.233-.42.373-.699.233.373.373.606.512.885-.14.187-.326.466-.559.746zM17.997 44.708c-.28-.373-.512-.653-.792-.979-.14.28-.233.42-.326.652-.466-.233-.838-.605-1.118-1.024-.605-.885-1.118-1.817-1.723-2.702-.373-.559-.42-1.211-.28-1.91.56-.14.699.56 1.165.746v-1.258c.931-.14 1.77-.233 2.608-.373.839.746 1.398 1.584 1.817 2.516.233.559.698.931.838 1.583.047.233-.28.56.14.746 0 0-.093.279-.14.279-.652-.233-.838.699-1.444.559-.046 0-.14.233-.186.373-.047.14-.093.28-.186.419-.047.093-.14.186-.373.373zM46.13 60.032c.187.419.327.745.513 1.164.14-.326.186-.466.233-.605.047.046.14.046.14.093.093.42.326.792.652 1.118.186.186.326.465.466.698.233.42.559.746 1.07.839.094-.186.187-.326.187-.42.233.187.513.373.699.513v.233l-.699.42c.047.325.14.651.187 1.117-.373-.186-.606-.28-.885-.42-.187.327-.326.653-.513 1.026-.186 0-.372.046-.605.093v.559c-.652.465-1.165.419-1.724-.093-.605-.56-1.304-1.025-1.91-1.677.28-.187.513-.326.792-.513a3.399 3.399 0 00-.745-1.397c-.373-.466-.559-1.025-.838-1.537.372-.466.652-.14 1.024.046 0-.14.094-.28.047-.372-.233-.56-.14-.839.373-.885h1.537zm-36.191 5.03c.233.326.372.56.605.885.047-.186.14-.28.093-.372a20.443 20.443 0 00-.326-1.444h.746c.046.14.14.28.28.605v-1.025c.139-.046.279-.046.372-.14.186-.139.512-.465.559-.465.326.28.698.093 1.024.233.466.186.932.512.885 1.071 0 .187-.232.373-.186.513.047.14.373.14.466.279.093.093.093.42 0 .466-.326.28-.28.605-.233.931.047.42-.14.652-.512.746-.373.093-.466.326-.56.698-.092.513-.465.839-1.07.839-.187 0-.42 0-.606.046-.513.094-1.118 0-1.304-.372-.373-.885-.932-1.77-.839-2.842.093-.326.373-.465.606-.652zm40.757-22.823c.326.093.652.186 1.07.326.187-.42.234-.792-.139-1.165.466-.419.745.187 1.164.14l.14-.699c.326-.372.652.326 1.072 0 .419-.326.512.373.885.466.186.047.372.233.512.42.466.605.559 1.397 1.211 1.909.14.14.093.559.093.931-.699-.372-.745.792-1.444.513-.233.326 0 .978-.792 1.025-.093-.14-.186-.373-.372-.652-.14.326-.233.465-.326.652-.42.093-.652-.28-.792-.513a5.105 5.105 0 00-1.863-1.863c-.466-.326-.746-.792-.42-1.49zM44.5 8.469c-.605.466-1.024.838-1.63 1.257H41.8c-.42-.605-.56-1.397-1.165-1.91-.046-.838-.652-1.35-1.164-1.956-.14-.186-.14-.559-.186-.885.186-.046.372-.046.465-.14.978-.931 1.91-.419 2.655.233.652.513 1.211 1.212 1.677 1.957.326.419.326 1.025.42 1.444z" fill="#1E1E1E"/></svg>