<svg width="129" height="113" fill="none" xmlns="http://www.w3.org/2000/svg"><path d="M129.094 119.332c-.698 1.919-1.359 3.839-2.792 5.426-.845.959-1.543 2.104-2.094 3.285-.221.406-.588.553-.808.923-.515.885-.698 1.882-1.323 2.731-1.433 1.919-2.866 3.876-4.372 5.758-.992 1.255-1.947 2.547-2.976 3.765-1.947 2.251-4.409 3.802-7.127 4.872-3.16 1.255-6.283 2.621-9.516 3.654-6.025 1.92-12.16 2.695-18.517 1.956-3.82-.442-7.568-1.181-10.838-3.137-5.29-3.174-9.626-7.345-12.675-12.734-.11-.185-.258-.369-.404-.591-1.25-1.698-2.389-3.469-2.94-5.536a17.403 17.403 0 00-1.175-2.99c-1.36-2.879-1.103-5.795 0-8.674 1.102-2.916 2.976-5.389 5.07-7.567 2.792-2.915 4.115-6.311 4.519-10.224.404-3.654-.258-7.16-.882-10.704-.404-2.177-.735-4.355-1.176-6.533-.698-3.506-2.278-6.607-3.93-9.744-2.132-4.06-3.785-8.342-4.777-12.845-.845-3.765-.404-7.493.845-11.036.735-2.067 1.69-4.06 3.233-5.721 1.506-1.624 3.05-3.212 4.85-4.503 4.335-3.101 9.111-5.279 14.181-6.866 5.805-1.808 11.426-3.95 16.35-7.603a118.639 118.639 0 0010.507-8.711c4.556-4.208 9.332-8.12 14.843-11 5.401-2.842 10.985-5.02 17.084-4.983 9.222.074 17.084 3.36 22.668 10.963 4.115 5.61 4.813 12.07 3.454 18.787-.257 1.218-.478 2.436-.772 3.654-.734 3.1-1.984 5.943-3.821 8.564-1.065 1.513-2.241 2.99-3.306 4.503-1.249 1.771-2.682 3.396-4.115 4.983-1.69 1.845-3.16 3.801-4.592 5.831-.478.702-1.286 1.145-1.764 1.883-1.8 2.879-3.674 5.721-4.96 8.895-.698 1.698-1.396 3.396-1.543 5.315-.073 1.182 0 2.363-.11 3.544-.147 1.772.147 3.506.441 5.204.11.665-.698 1.181-.515 1.255.919.258.258.775.294 1.144 0 .222-.147.48-.073.665.845 3.506.477 7.087.551 10.667.073 3.285.367 6.644-.514 9.892-.331 1.181-.552 2.399-.919 3.58-.404 1.403-1.176 2.732-1.286 4.208-.184 2.067-1.212 3.802-1.984 5.684-.037 0-.22.074-.294.111.074-1.07.992-1.882.992-3.027-.771 1.661-1.726 3.212-2.131 5.02.405-.664.772-1.329 1.139-1.993zm-26.71-96.742c1.213-.739 2.168-1.772 3.123-2.805-.992.96-2.277 1.66-3.123 2.805-.881.332-1.432 1.07-2.057 1.698a5.727 5.727 0 002.057-1.698zm11.831-15.281c.183-.074.404-.074.551-.185 4.225-2.251 8.634-4.06 13.3-5.167.183-.037.404-.037.514-.296a6.829 6.829 0 00-.919.148c-3.894.664-7.494 2.178-10.985 3.913-.845.48-1.8.812-2.461 1.587-1.029.11-1.654.96-2.572 1.329-.147.073-.331.369-.074.59.074.074.184.148.258.037.514-.997 1.763-1.07 2.388-1.956zM86.182 147.605c.662 0 1.323.074 1.984 0 2.682-.295 5.328-.775 7.973-1.292 3.931-.738 7.568-2.436 11.279-3.801 1.727-.628 3.343-1.514 4.519-3.027 3.858-5.057 6.944-10.482 9.148-16.499 1.764-4.798 4.041-9.375 5.915-14.137 1.323-3.395 2.205-6.939 2.572-10.593.331-3.027.147-6.09.147-9.117 0-2.51-.037-5.02.147-7.53.11-1.771-.294-3.617-.441-5.425-.257-3.175-.22-6.349.735-9.45a39.374 39.374 0 013.6-8.157c3.05-5.204 6.834-9.818 10.838-14.32 2.131-2.4 4.262-4.836 6.026-7.53 3.27-4.947 4.813-10.41 4.702-16.352-.11-4.614-2.13-8.231-6.098-10.667-6.907-4.245-14.219-5.61-22.044-3.027-6.062 1.993-11.463 5.168-16.423 9.228-3.086 2.51-5.915 5.352-8.964 7.862-4.189 3.432-8.45 6.791-13.374 9.117-3.82 1.808-7.825 3.1-11.867 4.281-3.453 1.034-6.723 2.4-9.846 4.208-3.564 2.104-6.613 4.761-8.707 8.416-.257.443-.257.443-.808.443-.184 0-.184.147-.258.258-.514 1.034-.881 2.14-.881 3.322 0 .812.294 1.956.036 2.325-.881 1.255-.22 2.436-.036 3.47.183 1.292.55 2.62.918 3.95.992 3.247 2.131 6.459 3.748 9.448 1.47 2.732 2.902 5.5 3.343 8.637.11.886 1.212 1.92.037 2.88 0 0 .073.073.11.147.624.96.918 2.03.955 3.1.037 1.034.404 2.03.478 3.064.073 1.661.698 3.322.33 5.02-.147.775-.11 1.624-.11 2.436 0 1.809-.624 3.506-.698 5.315-.037.664-.624 1.55-.955 2.325-1.176 2.769-3.233 4.91-5.034 7.198-1.69 2.178-3.6 4.319-3.784 7.308-.073 1.218-.44 2.473.184 3.617 1.653 3.027 2.535 6.497 4.813 9.228 1.763 2.104 2.976 4.688 5.143 6.533 2.131 1.809 4.152 3.728 6.577 5.057 1.212.664 2.425 1.329 3.82 1.624 3.38.886 6.798 1.181 10.251 1.107zm39.826-33.662c-.992 3.396-2.939 6.275-3.931 9.56 1.212-.886 4.409-8.453 3.931-9.56zM87.174 28.237c3.38-1.55 6.21-3.839 8.928-6.349-2.829 2.104-5.621 4.245-8.634 6.09-.11.074-.22.148-.294.259zM54.77 45.843a112.671 112.671 0 015.107-5.167c-2.131 1.329-3.785 3.1-5.107 5.167zm-2.94 75.224c.405-1.108.662-2.252.992-3.396-.66 1.033-1.028 2.178-.991 3.396zm2.058-72.898c-.073-.259-.184-.37-.44-.333-.405.074-.626.333-.662.739 0 .221.11.258.294.221.404-.074.587-.369.808-.627z" fill="#1E1E1E"/><path d="M113.884 102.722c-.037-.258 0-.48-.257-.59-.037.369-.331.738.147 1.07.294.185 0 .517-.074.738a317.306 317.306 0 00-1.947 6.275c-.624 1.993-1.322 3.949-1.8 5.979-.221 1.034-.735 1.957-1.102 2.916-.184.443-.331.849-.331 1.329 0 .997-.073.997-.955.48-.074-.037-.184 0-.294-.037 0 .111-.037.222 0 .295.588.96.441 2.104-.221 3.027-.44.591-.845 1.218-1.028 2.03-.294 1.218-1.102 2.141-2.058 2.953-.073.074-.294.037-.294.221-.036.997-.845 1.477-1.432 2.067-.588.554-1.286.96-1.801 1.588-.918 1.07-1.947 1.956-3.233 2.657-.588.332-1.175.96-1.837 1.218-2.388.96-4.74 1.993-7.164 2.879-4.115 1.477-8.156 1.034-12.198.074-2.388-.591-4.555-1.661-6.54-3.137-.77-.554-1.359-1.255-1.983-1.957-2.388-2.657-4.042-5.721-4.887-9.19-.55-2.215-.183-4.393.919-6.386.294-.517.514-1.218 1.506-1.107.441.037.845-.738 1.176-1.255 2.351-3.58 4.262-7.419 5.805-11.442 1.616-4.208 3.05-8.49 3.563-13.03.405-3.285-.036-6.46-.844-9.633-.625-2.547-1.948-4.688-3.454-6.755-1.139-1.55-2.131-3.174-3.27-4.761-.404-.554.11-.923.22-1.624-.624.848-.697.664-.955-.037-.257-.702-.734-1.33-1.102-1.994-.808-1.44-1.249-2.99-1.286-4.576 0-.591-.33-1.108-.257-1.698.11-.739.147-1.477.367-2.178.368-1.218.588-2.547 1.8-3.359.331-.221.148-.96.515-1.366 1.617-1.734 3.123-3.58 5.144-4.872a95.819 95.819 0 0115.063-7.862c3.674-1.513 7.164-3.47 10.03-6.311 4.262-4.171 8.707-8.12 13.3-11.922 4.372-3.58 9.001-6.681 14.365-8.6a24.765 24.765 0 016.944-1.44c3.38-.222 5.952 1.329 7.899 3.912 3.784 4.946 4.666 10.52 3.233 16.536-.992 4.023-2.425 7.9-4.446 11.516-.955 1.698-1.873 3.433-3.453 4.725-.735.627-1.139 1.66-1.727 2.51-1.984 2.879-4.482 5.315-6.429 8.194-.882 1.292-1.617 2.62-2.462 3.95-1.8 2.841-3.049 5.979-4.372 9.042-1.176 2.695-1.617 5.648-2.057 8.527a850.475 850.475 0 01-1.47 9.412c-.294 1.808-.514 3.654-1.176 5.352-.441 1.181-.477 2.436-.992 3.58-.367.628-.036 1.514-.808 2.067zm-42.36 6.017c.293-.111.367-.406.44-.628.918-2.178 1.947-4.318 2.572-6.607.367-1.329.992-2.62.992-4.06-.662 2.547-1.764 4.909-2.572 7.382-.44 1.366-1.212 2.547-1.433 3.913-1.102 1.55-1.69 3.358-2.608 4.982.955-1.587 2.13-3.1 2.608-4.982zm1.028-35.951c0-.11 0-.295.073-.37.147-.11.184.075.294.148.257.259.147.702.478.96.624.517 1.065 1.144 1.36 1.956.256.665.991 1.181 1.469 1.772.11.148.257.37.11.554-.257.369-.037.48.257.553.368.111.551.37.661.702.441 1.144 1.03 2.214 1.176 3.47.074.811.22 1.77.515 2.361.845 1.624.845 3.36.771 5.02-.073 1.477-.367 3.027-.294 4.503.074 1.292-.588 2.326-.771 3.544-.22 1.44-1.213 2.731-1.433 4.244-.11.923-1.102 1.624-1.102 2.363.036 1.698-1.47 2.62-1.727 4.134-.074.48-.294 1.218-.698 1.698-.882.959-1.102 2.251-2.02 3.211-1.14 1.181-1.728 2.805-2.94 3.986-.735.701-1.286 1.624-1.91 2.436-.588.738-.515 1.883-.699 2.879-.257 1.403.552 2.51.919 3.765.882 2.99 2.682 5.426 4.813 7.419 4.151 3.876 9.148 5.168 14.696 3.137.55-.221 1.139-.406 1.69-.59 3.343-1.107 6.209-2.99 8.89-5.241 3.491-2.99 5.144-7.124 7.092-11.074.661-1.365.955-3.063 1.469-4.576.368-1.034.735-2.104.955-3.175.258-1.07.588-2.141.882-3.174.331-1.07.772-2.067 1.029-3.137.22-.96.698-1.809.882-2.769.257-1.328.698-2.62 1.028-3.95a101.214 101.214 0 002.829-14.357c.331-2.695.551-5.426 1.102-8.047 1.801-8.563 5.732-16.13 11.133-22.921 2.424-3.027 4.959-5.943 7.494-8.896 3.638-4.207 5.585-9.227 7.055-14.505.918-3.285.771-6.497-.441-9.67-.698-1.81-1.69-3.323-3.858-3.655-1.984-.332-3.931.148-5.842.48-1.139.221-2.351.738-3.453 1.292-2.719 1.328-5.438 2.546-7.789 4.466-.551.443-1.249.516-1.8.96-.698.59-1.213 1.365-1.984 1.882-.441.295-.992.332-1.396.701-2.609 2.436-5.585 4.466-7.936 7.198-.808.96-1.837 1.734-2.719 2.62-3.343 3.322-7.274 5.795-11.683 7.42a66.592 66.592 0 00-15.137 7.935c-1.8 1.255-3.747 2.436-5.033 4.319-.735 1.107-1.727 2.214-1.837 3.47-.184 1.882-.368 3.801.257 5.684.147.442-.11 1.07-.037 1.218.368.59.588 1.254.992 1.808.845 1.181 2.02 2.215 2.168 3.839zm37.144 33.441c-1.029 2.067-1.69 4.318-2.278 6.533-.625 2.288-1.47 4.466-2.205 6.718-.698 2.103-1.69 4.133-2.571 6.164 3.71-6.017 5.07-12.808 7.054-19.415zm1.506-81.499c4.335-3.432 8.891-6.459 13.998-8.6-3.343.443-12.602 6.57-13.998 8.6zM72.625 50.752c-2.608 1.772-4.923 3.802-6.025 6.902 1.764-2.51 3.747-4.835 6.025-6.902zm-8.376 68.986c-1.102 1.107-1.617 4.54-.882 5.241.22-1.772.22-3.543.882-5.241zm43.426-91.87l-.22-.222c-1.874 1.735-3.932 3.285-5.585 5.315 1.947-1.734 3.858-3.395 5.805-5.093zM95.22 38.756c2.168-1.255 3.895-3.026 5.548-4.872-1.874 1.624-3.674 3.285-5.548 4.872z" fill="#1E1E1E"/><path d="M119.358 55.108c.368.59.221.996 0 1.587-.588 1.44-1.763 2.547-1.984 4.134-.073.553-.514.996-.808 1.476-.698 1.218-.808 2.658-1.433 3.839-.588 1.144-.845 2.362-1.433 3.47-.33.59-.22 1.328-.624 1.882-.294.369-.955 2.768-1.066 3.211-.183 1.144-.441 2.289-.661 3.433-.037.184-.11.406-.404.369-.294-.037-.404.074-.294.332.404.923-.074 1.735-.441 2.473-1.029 2.104-1.91 4.282-2.829 6.423-.184.442-.992.295-.698 1.144.147.443-.331 1.18-.661 1.734-.331.554-.551 1.145-.845 1.698-2.168 4.134-4.152 8.379-6.026 12.661-1.028 2.362-2.277 4.65-3.38 7.013-.294.59-.477 1.255-.661 1.882-.184.591-.44 1.403-1.139 1.772-.147.074-.22.111-.257.258-.882 2.732-3.197 4.171-5.29 5.795-1.47 1.144-3.307 1.846-4.997 2.621-1.029.48-2.02 1.292-3.233 1.439-1.213.185-2.425.406-3.674.406-1.213.037-2.315-.258-3.307-.959-.514-.37-.588-.812-.367-1.403.55-1.44 1.396-2.658 2.718-3.506.515-.333 1.03-.628 1.36-1.145.22-.369.624.111 1.065-.332 1.58-1.55 2.535-3.433 3.527-5.315 2.058-3.913 3.637-8.046 5.107-12.18.661-1.81.992-3.691 1.286-5.574.184-1.181.294-2.4.404-3.58.037-.554.257-.997.955-.665.404.185.515-.11.735-.295.147-.148.11-.332-.037-.443-.22-.221-.44 0-.624.11-.772.37-.992.148-.955-.7.11-2.289.147-4.614-.441-6.866a14.48 14.48 0 00-1.25-3.248c-1.58-2.99-3.637-5.684-5.437-8.526-1.323-2.067-2.682-4.171-2.976-6.718-.073-.59-.55-1.329.294-1.808a.28.28 0 00.074-.148c-.147-2.326-.074-2.4 1.506-4.023 1.029-1.07 2.278-1.809 3.527-2.4 4.666-2.14 8.597-5.315 12.455-8.673 4.702-4.098 8.964-8.674 13.851-12.513 5.327-4.245 11.462-7.124 17.929-9.117 3.416-1.07 5.951 1.513 5.217 5.094-.735 3.58-2.095 6.902-3.895 10.076-2.057 3.654-4.409 7.087-6.686 10.593-.625.96-1.139 1.994-1.911 2.88-.331.48-.624.885-1.286.332zm-35.637 56.251c.294-.037.367-.258.477-.443 1.323-2.583 2.278-5.352 3.49-7.972.588-1.255.368-2.806 1.323-3.913.147-.184.11-.369-.11-.48-.294-.147-.478.074-.514.332-.147.96-.588 1.809-.919 2.695-.808 2.325-1.506 4.651-2.608 6.865-.441.886-.956 1.846-1.14 2.916-.77 1.107-1.359 2.289-1.836 3.58.588-1.218 1.653-2.177 1.837-3.58zm25.901-69.613c-1.175.517-1.763 1.661-2.608 2.547-1.103.664-1.727 1.809-2.719 2.584-1.69 1.365-3.454 2.657-5.033 4.134a45.1 45.1 0 01-10.949 7.492c-1.506.739-3.233.886-4.519 2.141-.771.775-1.727 1.403-1.8 2.584-.11 1.772.184 3.506 1.029 5.13 1.58 2.953 3.71 5.574 5.584 8.342 1.947 2.88 3.674 5.832 4.115 9.412.404 3.433.184 6.829-.037 10.262-.037.7-.514 1.365-.514 2.14-.037 1.108-.037 2.363-.735 3.285-1.286 1.661-1.69 3.655-2.535 5.5-.257.591-.11 1.476-.625 1.956-.698.628-.881 1.44-1.212 2.178-.147.295-.33.591-.551.849-.772.775-1.25 1.772-1.764 2.621-1.028 1.697-2.204 3.211-3.674 4.54-.404.369-1.102.332-1.322.922-.257.591-.735 1.034-1.213 1.44-.514.406-.734.96-.955 1.624.368.111.588-.037.845-.148 1.506-.553 2.792-1.55 4.262-2.214a16.799 16.799 0 006.43-5.131c1.285-1.698 2.13-3.617 3.049-5.5 1.8-3.764 3.674-7.492 5.364-11.294a124.68 124.68 0 013.012-6.312c1.764-3.47 3.307-7.013 4.85-10.556 1.213-2.842 2.241-5.795 2.903-8.822.587-2.657 1.579-5.167 2.571-7.714 1.874-4.798 3.785-9.597 6.871-13.805 2.755-3.764 5.584-7.53 8.082-11.479 1.874-2.953 3.491-6.016 4.299-9.486.073-.369.367-.849.037-1.107-.257-.222-.698.074-1.029.221-3.527 1.403-6.87 3.064-10.14 4.946-.588.333-1.102 1.108-2.021.739-.11-.037-.404.11-.33.295.257.553-.258.553-.478.664a139.346 139.346 0 00-3.821 2.62c-1.066.665-1.764 1.699-2.719 2.4zm-19.031 73.858c.698-1.144 1.543-2.178 2.13-3.433 1.287-2.842 2.793-5.61 4.042-8.489 1.837-4.282 3.784-8.526 6.026-12.624.147-.258.257-.516-.111-.885-4.482 8.341-7.715 17.163-12.087 25.431zm18.774-78.287c2.609-1.92 5.291-3.765 8.156-5.278 2.903-1.55 5.879-2.99 8.855-4.356-6.063 2.473-12.088 5.094-17.011 9.634zm-8.046 7.677c-.073-.074-.11-.148-.184-.258-2.792 2.399-5.547 4.835-8.34 7.234.074.074.11.148.184.222 2.792-2.4 5.585-4.799 8.34-7.198zm-17.635 12.66c-2.094.406-4.225 2.363-4.005 3.691.992-1.66 2.462-2.73 4.005-3.69zm19.141 32.186c.111.037.184.111.294.148.331-.849 1.249-1.476.809-2.62-.368.811-.735 1.66-1.103 2.472z" fill="#1E1E1E"/><path d="M109.622 41.746c-.588 1.144-1.506 1.92-2.608 2.547.845-.886 1.433-2.03 2.608-2.547zM7.5 47.6c.085.087.143.116.2.173.087-.288.087-.547-.143-.777h.259c.029-.029.086-.086.086-.115-.057-.26.058-.518.173-.72.144-.23.403-.403.317-.749v-.086c.49-.346.547-1.008.95-1.41.144-.145.144.057.288.086.057-.576-.029-1.21.518-1.728 0 0 .144-.029.26-.029.086-.029.057-.057 0-.115-.174-.144-.174-.346-.03-.46.403-.433.547-.98.807-1.47.46-.92 1.036-1.756 1.554-2.648a49.653 49.653 0 011.642-2.62c.748-1.123 1.497-2.275 2.274-3.37.519-.719 1.037-1.439 1.498-2.188.46-.72 1.036-1.353 1.526-2.044.576-.806 1.238-1.555 1.785-2.39.259-.432.69-.748.979-1.151 1.123-1.555 2.534-2.851 3.887-4.204.23-.23.49-.518.95-.49-.144.432-.288.806-.605 1.094-.46.432-.892.893-1.324 1.325-.23.23-.49.403-.662.662-.173.26-.403.432-.576.691-.173.26-.375.46-.576.691-.317.432-.691.806-1.065 1.21-.461.518-.778 1.122-1.21 1.64-.46.52-.835 1.124-1.267 1.67-.144.174-.345.289-.316.577 0 .115-.173.259-.288.345-.403.346-.662.835-.95 1.267-.288.46-.576.922-.893 1.353-.864 1.296-1.699 2.592-2.591 3.859-.576.806-.95 1.727-1.555 2.505 0 .374-.432.46-.519.806-.057.26-.172.547-.403.777-.172.173-.374.346-.46.576-.115.26-.202.49-.346.72-.144.23-.259.49-.432.691-.173.202-.23.49-.403.691-.086.115-.029.346-.23.346-.202 0-.23.115-.202.259.058.259-.144.46-.23.69-.115.058-.26-.057-.403.087.259.46-.202.835-.173 1.267-.46.087-.288.576-.49.806-.23.26-.172.605-.374.864-.317.432-.49.95-.69 1.44-.231.46-.433.921-.692 1.353-.115.173-.086.26.086.432-.547.23-.259 1.065-.95 1.21.058.086.144.172.144.23-.172.49-.259.979-.518 1.44-.202.345-.403.748-.403 1.151a.69.69 0 01-.202.46c-.49.692-.547 1.498-.748 2.275-.173.605-.403 1.21-.576 1.786-.26.748-.547 1.468-.691 2.245-.087.461-.317.922-.432 1.383-.086.345-.26.662-.202 1.007.058.26-.23.432-.201.72 0 .115-.202.317-.115.46.115.202-.346.26-.058.433-.115.345-.144.72-.345 1.008-.288.489-.26 1.036-.404 1.554-.23.835-.144 1.728-.49 2.563.145.374-.316.749 0 1.123.087.086-.143.23-.172.403-.115.893-.345 1.785-.288 2.707 0 .201-.259.374-.029.575-.259.202-.115.49-.144.72-.028.23.087.519-.028.691-.26.461.115.864.028 1.296-.086.374.087.778-.172 1.123a.318.318 0 000 .23c.259.288.172.634.144.95-.058.548.23 1.037.172 1.584 0 .058.144.144.26.26 0-.519.172-1.008-.087-1.498-.057-.115-.029-.288-.029-.46 0-.922.03-1.843 0-2.736 0-.403.23-.777.173-1.18-.057-.375-.115-.835.029-1.152.144-.375 0-.778.173-1.094.172-.346.028-.72.115-1.066.173-.72.144-1.497.317-2.217.144-.605.23-1.21.403-1.785.029-.144-.23-.202 0-.346.144-.086.029-.287.057-.431 0-.144.202-.173.173-.317-.058-.173.144-.288.144-.403.029-.375.086-.749.144-1.123.144-.72.346-1.44.518-2.16.346-.23 0-.633.26-.921.201-.202.143-.576.201-.864.23-.95.49-1.871.806-2.793.23-.633.518-1.267.605-1.958.029-.288.201-.605.345-.864.375-.806.576-1.64.864-2.476.144-.403.346-.748.518-1.123.26-.633.375-1.295.75-1.9.23-.374.23-.922.633-1.238-.173-.432.287-.663.345-1.037.058-.374.346-.69.46-1.065.116-.346.289-.662.461-.98.173-.316.375-.633.548-.95h.374c-.058-.172-.202-.345-.144-.518.057-.115.173-.086.259-.115.029-.057.058-.086.058-.144 0-.547.201-1.036.49-1.44.517-.72.805-1.526 1.208-2.245.49-.864 1.037-1.728 1.498-2.592.547-1.036 1.267-1.986 1.842-2.994.375-.72.893-1.354 1.354-2.045.576-.863 1.209-1.698 1.756-2.562.46-.72.98-1.354 1.469-2.044.49-.692.95-1.411 1.526-2.045.49-.576.892-1.21 1.353-1.785.49-.662 1.037-1.267 1.526-1.958a11.37 11.37 0 011.094-1.296c.691-.69 1.353-1.382 2.044-2.044.087-.086.144-.23.346-.202.201.202.086.403-.086.605.374.086.403-.288.662-.288.144.029.173.173.288.23-.26.087.057.288-.087.375-.144.115-.028.317-.23.374.029.173.23.029.317.26-.23.316-.49.662-.778 1.007-.201.23-.432.432-.575.72-.116.23-.461.345-.404.69 0 .058-.115.058-.172.116-.375.26-.72.777-.922 1.296-.115.288-.317.547-.49.806-.316.432-.69.864-.978 1.325-.058.086-.144.115-.23.172-.404.23-.692.547-.807 1.037-.057.259-.144.317-.432.605a2.35 2.35 0 00-.345.46c-.46.634-.864 1.325-1.325 1.958-.288.374-.259.922-.69 1.21.086.345-.26.46-.404.69-.345.548-.835 1.066-1.008 1.7-.057.23-.46.086-.345.402-.375.519-.576 1.123-.95 1.642-.144.201-.404.374-.432.576-.058.431-.605.633-.519 1.122-.431.202-.431.634-.604.98-.115.287-.432.431-.49.806-.029.316-.288.604-.46.892-.173.288-.432.547-.49.893-.403.057-.403.46-.518.72-.144.288-.375.518-.375.863 0 .26-.46.202-.316.576.086.23-.173.403-.26.605-.086.202-.086.46-.431.46-.087 0-.202.145-.26.26-.258.403-.287.979-.777 1.238.029.288-.23.518-.259.749-.057.777-.547 1.353-.864 2.015-.23.49-.259 1.065-.72 1.44.087.403-.316.662-.345 1.036-.058.432-.403.72-.46 1.152-.058.403-.318.749-.461 1.152-.03.057-.116.115-.202.201.202.691-.547 1.239-.432 2.045.144-.317.26-.519.403-.835.029.72-.374 1.209-.49 1.756-.114.547-.402 1.094-.575 1.641-.202.547-.46 1.066-.576 1.642-.144.575-.403 1.094-.518 1.67-.115.575-.346 1.123-.519 1.698-.115 0-.23.03-.345.03-.317.402-.144.92-.374 1.324-.03.057.028.172 0 .23-.346.432-.26.979-.461 1.468-.23.49-.115 1.037-.317 1.526-.23.576-.23 1.21-.432 1.786-.115.288.058.662-.201.95.086.46-.087.892-.173 1.353-.058.403-.173.778-.144 1.18-.374.289.058.807-.317 1.124-.057.057 0 .201 0 .316.058.663-.144 1.296-.23 1.93-.029.201.173.345.086.547-.316.806-.086 1.64-.172 2.447-.03.346.057.633.23.921.029-.028.086-.057.115-.086.432.115.518.46.432.806-.086.288-.403.26-.662.23-.144.26-.26.576-.634.49-.23-.058-.374.086-.576.173-.201-.115-.374-.288-.575-.317-.432-.029-.634-.317-.807-.633-.172-.317-.259-.663-.345-1.037-.23-1.008-.115-1.987-.144-2.994-.029-1.008 0-1.987 0-2.995 0-.346.23-.662.173-1.037-.03-.345-.144-.72.144-1.036-.116-.576.23-1.094.172-1.67-.057-.72.144-1.44.317-2.13.029-.145.029-.346.086-.462a.833.833 0 00.058-.518c-.058-.316.144-.576.202-.864.028-.316.143-.604.115-.892.144-.115.259-.029.316-.23-.259-.288-.144-.605-.028-.98.23-.72.403-1.468.49-2.245.028-.23.114-.461.2-.691.202-.576.404-1.152.433-1.843.086-.058.201-.144.288-.202.028-.172-.173-.144-.087-.288.115-.288.288-.576.26-.921 0-.058 0-.086.028-.144.058-.144.432-.173.144-.432.288-.115.058-.432.26-.605.114-.115.143-.374.172-.547.029-.201.173-.345.201-.547.03-.403.461-.69.288-1.094.058-.144.202-.086.288-.144-.057-.259.144-.979.403-1.353.058.029.144.057.23.115a.46.46 0 00.058-.144c-.086-.23-.288-.432-.028-.662.028-.547.288-1.037.518-1.497.201-.404.317-.807.432-1.239.115-.403.49-.69.49-1.122.431-.548.431-1.21.863-1.7zm4.405-1.756c-.144-.144.172-.115.028-.259-.144-.115-.057-.288-.115-.432-.029-.057-.057-.086-.115-.029-.115.173.058.404-.086.576-.087.03-.173.03-.23.058.086.26.402.345.46.576-.115.403-.403.316-.691.345-.029 0-.058.058-.087.087.116.144.317-.03.404.086.23.346-.23.23-.23.518 0-.028.172-.057.086.058-.116.086-.317-.058-.432.115.115.432 0 .749-.432 1.296l.115.115c-.058.144-.26.029-.317.173-.057.144.115.201.144.316-.432.72-.432.72-.46 1.152-.173.144-.432.346-.663.547-.115.23.144.346.173.49-.23.201-.432.46-.432.777 0 .23-.115.374-.173.576-.144.432-.316.864-.46 1.296-.03.086-.058.201.115.23.144-.23.259-.432.345-.72.173-.576.375-1.151.634-1.698.259-.548.345-1.152.748-1.642.087-.115.144-.316.202-.46.288-.864.72-1.7 1.123-2.505.23-.461.547-.864.576-1.411 0-.058-.029-.087-.029-.144-.086-.03-.173-.087-.201-.087zm1.18-21.335c.029.316-.317.604-.086.921.201.086.259-.115.403-.201-.03-.461.144-.835.374-1.239.23-.403.576-.72.749-1.18.172-.432.49-.806.748-1.18.26-.404.547-.778.806-1.152.202-.317.404-.634.634-.922.576-.662 1.065-1.382 1.612-2.073.288-.374.605-.662.893-1.037.49-.633 1.094-1.151 1.584-1.785.518-.662 1.18-1.209 1.727-1.871 1.21-1.469 2.65-2.707 3.974-4.089.201-.23.432-.432.662-.662.46-.49.921-1.037 1.584-1.267.259-.086.144-.374.403-.518.23-.116.49-.346.69-.605.174-.26.461-.432.692-.633.259-.26.576-.49.864-.75.288-.028.604-.085.892-.114.058 0 .087-.087.115-.144-.057-.144-.316.029-.288-.288.202-.26.461-.547.893-.72.086.029.029.173.058.23.057.058.172.116.028.23-.144.116.087.145.087.231-.173.173-.403 0-.576.086-.23.23.173.288.086.49-.144.144-.374.23-.604.317v.288c-.375.403-1.008.49-1.18 1.065-.087.288-.49.201-.577.547-.057.23-.374.288-.604.403-.144.029-.173-.115-.288-.144-.173.288.172.346.259.547l-.375.375c-.057-.058-.115-.087-.172-.144-.144.172-.432.144-.547.374-.058.173.057.23.144.317l-.23.23c-.058-.058-.116-.086-.173-.144-.116.403-.116.403-.432.749-.202 0 0-.317-.375-.288-.201.086-.029.662-.49.662.058.086.116.144.202.288-.288.23-.518.518-.777.748-.317.23-.46.576-.777.807h-.49c0 .259-.317.374-.346.604-.115.778-.748 1.152-1.238 1.584-.172.173-.431.26-.49.518-.028.087-.057.144-.143.144-.403 0-.605.23-.633.605-.03.202-.145.317-.346.317-.346 0-.432.288-.576.431 0 .288.26.116.317.288-.202.03-.202.461-.547.23-.03 0-.202.116-.202.202a.69.69 0 01-.345.634c.057.374-.23.576-.461.748-.288.26-.49.605-.691.893-.26.374-.547.691-.95.921-.115.058-.202.173-.288.23.029.317-.029.52-.202.75-.604.748-1.21 1.497-1.67 2.36-.144.288-.432.404-.72.432-.201.03-.259.173-.345.23.173.49-.374.836-.144 1.268-.23.144-.403.028-.605.115-.115.403-.23.864-.374 1.296.057.143.26 0 .317.23-.03.173-.288.374-.116.748-.172-.172-.23-.201-.287-.259-.144.058 0 .26-.173.317-.23.029-.288-.202-.403-.288-.202.115-.432.202-.634.317-.201-.173-.086-.288.029-.403-.086-.115-.144-.26-.346-.26-.201 0-.028.23-.201.317-.374-.403.144-.864-.144-1.295.173-.116.288-.202.403-.317-.058-.087-.115-.115-.173-.173.115-.23.23-.49.375-.72h.086c.086.087.144.144.144.23z" fill="#1E1E1E"/><path d="M13.085 24.509c0-.115-.058-.173-.144-.144-.058-.576.317-.98.576-1.411.403-.72.893-1.41 1.353-2.102.346-.518.749-1.008 1.123-1.497.518-.691 1.094-1.296 1.555-2.016.288-.403.662-.748 1.008-1.151.46-.547.863-1.152 1.41-1.613.288-.259.576-.49.75-.864a.684.684 0 01.46-.374c.115-.029.144-.288.288-.432a99.364 99.364 0 013.83-3.973c.806-.807 1.698-1.526 2.504-2.304a23.879 23.879 0 012.074-1.756c.287-.202.489-.547.892-.634.144.144.115.288-.029.346a9.447 9.447 0 00-2.073 1.785c-.201.23-.518.317-.72.547-.172.202-.345.432-.633.518a.794.794 0 00-.432.432c-.115.288-.374.403-.547.634-.173.23-.403.345-.605.547-.288.259-.432.662-.835.806-.029.403-.49.403-.604.662-.144.317-.432.403-.634.634-.173.23-.345.46-.576.662-.23.201-.46.432-.662.662-.23.23-.46.432-.662.662-.202.23-.375.49-.576.691-.432.49-.777 1.008-1.238 1.469-.518.46-.922 1.065-1.354 1.612-.431.547-.834 1.152-1.324 1.642-.374.374-.518.892-.95 1.18-.029.374-.432.547-.576.864-.115.23-.317.547-.605.691-.144.086-.144.49-.288.547-.288.086-.201.288-.288.432-.057.115-.115.288-.201.374-.46.547-.778 1.18-1.066 1.843-.086.029-.143.029-.201.029z" fill="#1E1E1E"/></svg>