<svg width="123" height="94" viewBox="0 0 123 94" fill="none" xmlns="http://www.w3.org/2000/svg">
<path d="M109.432 70.6987C108.547 71.3974 108.174 72.3756 107.988 73.4469C107.894 74.0524 107.335 74.1456 106.916 74.2387C106.544 74.3319 106.218 74.3319 105.938 74.658C105.798 74.7977 105.426 74.7977 105.286 74.7045C104.774 74.3785 104.215 74.1456 103.749 73.773C102.119 72.329 100.908 70.5124 99.7431 68.6958C98.5786 66.8327 97.3676 64.9695 96.4826 62.9666C96.2031 62.3145 96.2031 62.3611 96.9018 61.8487C97.4607 62.92 97.9731 63.9914 98.5786 65.0627C99.0444 65.9011 99.65 66.6464 100.255 67.5314C100.395 67.2053 100.395 66.9724 100.162 66.6464C98.9979 64.9695 97.88 63.2461 96.995 61.2432C97.1347 61.15 97.321 61.0569 97.4607 60.9171C97.5073 60.9637 97.6005 61.0103 97.7402 61.15C97.7402 60.8706 97.7402 60.6842 97.7402 60.4514C98.1594 60.3582 98.5321 60.3116 99.0444 60.1719C99.4171 60.3582 99.6034 61.0103 100.255 61.1035C100.255 61.8021 100.814 62.1282 101.14 62.6406C101.513 63.2461 102.025 63.805 102.398 64.2708C102.817 64.2243 103.097 64.1777 103.423 64.1311C104.494 64.0379 104.494 64.0845 105.146 64.69C105.892 65.3422 106.404 66.2737 107.382 66.6929C107.429 66.7395 107.522 66.8327 107.522 66.8793C107.568 67.5779 107.941 67.8108 108.593 67.9972C109.152 68.1369 109.292 68.6958 109.338 69.2548C109.292 69.674 109.385 70.0932 109.432 70.6987Z" fill="#1E1E1E"/>
<path d="M13.3856 -9.60356C14.1774 -9.23093 14.1774 -9.23093 14.5501 -10.0228C15.0624 -10.2091 15.7145 -9.83646 16.1803 -10.3022C16.7393 -10.1625 17.2516 -9.97619 17.8106 -9.92961C18.6956 -9.78988 19.1614 -9.13777 19.6272 -8.57882C19.9532 -8.20619 20.3259 -7.78698 20.6053 -7.36777C20.978 -6.8554 21.3972 -6.43619 21.7698 -5.92382C22.0959 -5.45803 22.3753 -4.99224 22.6548 -4.52645C22.748 -4.38671 22.8411 -4.24697 22.8411 -4.10723C22.7945 -3.7346 22.9343 -3.50171 23.2138 -3.22223C23.7261 -2.70986 23.6795 -1.9646 23.8659 -1.35907C24.0056 -0.753544 23.9124 -0.101436 23.8659 0.550671C23.8659 0.783566 23.8193 1.29593 23.3069 0.923303C23.2603 0.876723 23.074 1.10962 22.9809 1.1562C22.8411 1.24936 22.6082 1.38909 22.5616 1.34251C22.0027 0.830143 21.863 1.20278 21.6301 1.66857C21.2574 2.36725 21.0245 2.32067 19.9998 2.13436C19.3943 2.0412 18.7422 1.99462 18.3695 1.48225C17.3914 0.0383015 16.4132 -1.40565 16.2735 -3.22223C16.2269 -3.9675 15.994 -4.71276 15.3885 -5.27171C14.8761 -5.7375 14.5035 -6.38961 13.8048 -6.6225C13.5719 -6.71566 13.4322 -6.94856 13.2458 -7.13487C12.8732 -7.55408 12.6869 -7.97329 12.6869 -8.57882C12.6869 -9.13777 13.1527 -9.27751 13.3856 -9.60356Z" fill="#1E1E1E"/>
<path d="M95.7373 38.5122C95.1318 37.9067 94.5729 37.2546 93.9673 36.7422C92.1973 35.2982 91.3589 33.2022 90.2876 31.2924C89.8218 30.4074 89.9615 29.4759 89.9615 28.4977C89.9615 28.358 90.1944 28.1716 90.3342 27.9853C90.5205 28.358 90.6602 28.684 90.9397 29.1498C90.9397 28.4511 90.9397 27.8922 90.9397 27.4264C91.3123 27.2401 91.685 27.1469 91.9179 26.914C92.2439 26.6345 92.57 26.6811 92.8494 26.7743C93.1755 26.8674 93.455 27.1469 93.781 27.3332C93.5947 28.2648 93.9673 29.0101 94.3866 29.8019C94.8058 29.7088 95.2716 29.9882 95.6442 29.569C95.7373 29.4759 96.0168 29.4759 96.11 29.569C97.0881 30.1745 98.2992 30.454 98.765 31.6651C98.8581 31.898 98.9513 32.1774 99.1376 32.2706C99.4171 32.4103 99.1842 32.8761 99.6034 32.8761C99.976 32.8761 99.7431 33.2953 99.7897 33.4817C99.8829 33.7611 99.976 33.994 100.023 34.2735C100.069 34.5064 100.023 34.7859 100.023 35.0188C99.0445 35.8572 98.4389 36.9285 97.9266 38.093C97.2745 38.2793 96.4826 38.3725 95.7373 38.5122Z" fill="#1E1E1E"/>
<path d="M10.2181 13.639C10.2181 14.5706 10.2181 15.4556 10.2181 16.3872C10.451 15.6885 10.4044 14.9898 10.451 14.2911C10.451 14.0117 10.3113 13.6856 10.6839 13.4993C11.01 13.313 11.3826 13.1732 11.7552 13.0801C11.895 13.0801 12.1279 13.3596 12.221 13.5459C12.3142 13.7788 12.221 14.0117 12.221 14.2911C12.4539 14.198 12.5471 14.1048 12.6868 14.1048C12.9197 14.1514 13.2458 14.3377 13.3389 14.2446C13.991 13.7788 14.7363 14.0582 15.3884 14.0582C15.7144 14.0582 16.1802 14.2446 16.32 14.4774C16.6926 15.083 17.4379 15.2693 17.8105 16.0146C17.8105 16.3406 17.8571 16.7132 18.1831 17.1325C18.6023 17.6914 18.975 18.3435 18.8352 19.1354C18.7887 19.508 18.8352 19.8806 18.8352 20.3464C17.9502 20.8588 17.0652 21.3711 16.2268 21.9301C15.3418 22.5356 14.5034 22.1164 13.7115 21.6972C13.1526 21.4177 12.4073 21.278 12.221 20.4861C10.9634 19.9272 10.7305 18.5764 10.0784 17.5982C9.61259 16.9461 9.65917 16.1543 9.51943 15.4556C9.42627 14.8501 9.84549 14.198 10.0318 13.5459C10.0318 13.5924 10.125 13.5924 10.2181 13.639Z" fill="#1E1E1E"/>
<path d="M34.7654 27.3802C34.253 26.8678 33.6475 26.2623 33.0419 25.6568C33.0419 25.2376 32.9954 24.7252 33.0419 24.2594C33.0885 24.0731 33.3214 23.8868 33.5077 23.7936C33.6009 23.747 33.7872 23.9334 33.9269 23.9799C34.1133 23.6073 34.2064 23.1415 34.8585 23.2347C34.9517 23.2347 35.138 23.2812 35.2312 23.1881C35.5572 22.9552 35.8833 22.6757 36.2559 22.7689C36.9546 22.9552 37.7464 23.0949 38.3054 23.5607C39.4233 24.5389 40.448 25.6102 41.007 27.0076C41.333 27.846 41.6125 28.731 41.7988 29.5694C41.8454 29.942 41.7522 30.501 41.333 30.7805C40.6343 31.2928 39.9356 31.8518 39.1904 32.3176C38.9575 32.5039 38.5848 32.5971 38.3054 32.5505C36.4422 32.4107 35.138 31.5257 34.5791 29.4297C34.4859 29.1036 34.2996 28.8242 34.3462 28.5447C34.3927 28.172 34.6256 27.7994 34.7654 27.3802Z" fill="#1E1E1E"/>
<path d="M37.9327 73.2601C37.8862 73.0272 37.8396 72.7477 37.793 72.5148C37.793 73.5396 36.7217 73.9122 36.4888 74.7506C36.3956 75.0767 35.9298 75.2164 35.7435 75.0301C35.4175 74.7506 35.2312 74.9369 35.0448 75.0767C34.5791 75.3561 34.2064 75.3561 33.7406 75.0767C32.3898 74.2848 30.9925 73.5396 30.2006 72.0956C29.2225 71.5832 28.943 70.5119 28.3375 69.7201C28.058 69.3474 27.9648 68.7885 27.7319 68.2761C28.1046 67.7638 28.6169 67.9035 29.2225 68.2296C29.1759 67.9501 29.1759 67.6706 29.0361 67.4843C28.8498 67.2514 29.0361 67.1582 29.1293 67.1117C29.5485 66.9253 30.0143 66.7856 30.3869 66.4595C30.4801 66.3664 30.713 66.413 30.8993 66.4595C31.1788 66.5527 31.4117 66.739 31.7377 66.4595C31.8309 66.3664 32.1104 66.5527 32.2967 66.5993C33.8338 67.2514 35.2312 68.0898 36.1162 69.6269C36.2559 69.8132 36.5354 70.0461 36.7217 70.2325C37.3272 70.7914 37.4204 71.5832 37.8862 72.1888C38.2122 72.5148 38.1191 72.8409 37.9327 73.2601Z" fill="#1E1E1E"/>
<path d="M115.068 14.0584C115.114 13.8255 115.114 13.5926 115.161 13.3131C115.254 13.3597 115.347 13.4062 115.347 13.4528C115.673 14.2447 116.092 14.9899 116.279 15.8749C116.418 16.4339 116.558 16.9463 116.046 17.3189C115.673 17.5984 116.046 18.4368 115.254 18.3902C114.881 18.9957 114.276 18.9492 113.717 18.9026C113.577 19.3218 113.484 19.6944 113.344 20.067C113.158 20.4397 112.552 20.5794 111.9 20.3931C111.761 20.3465 111.621 20.2068 111.481 20.2068C110.41 20.2999 110.41 20.2999 109.991 19.4615C109.758 19.0423 109.478 18.6697 109.338 18.2039C109.106 17.6915 108.779 17.3189 108.267 17.1326C107.475 16.8065 106.963 16.1078 106.823 15.2694C106.683 14.5241 107.056 13.8255 107.708 13.3131C108.034 13.7323 108.36 14.1515 108.826 14.757C108.826 14.1515 108.826 13.7323 108.826 13.3131C108.826 12.8939 108.873 12.987 109.525 12.7076C109.991 12.5212 110.643 12.7541 110.922 12.102C111.388 12.102 111.854 12.0555 112.319 12.0555C113.158 12.0089 113.903 12.102 114.322 13.0336C114.369 13.4062 114.742 13.6857 115.068 14.0584Z" fill="#1E1E1E"/>
<path d="M83.3472 78.617C82.6951 78.617 82.0896 78.4307 81.7635 79.1294C81.2046 78.4307 81.158 77.9183 81.717 77.3594C82.0896 76.9867 82.3225 76.4744 82.8349 76.1483C83.2541 75.8688 83.3938 75.2167 83.7664 74.7975C84.0459 74.4715 84.4651 74.2851 84.8378 74.0522C84.9309 74.1454 85.0707 74.2851 85.257 74.4715C85.0707 74.6112 84.8378 74.7509 84.6514 74.8907C84.6514 74.9372 84.698 74.9838 84.698 75.0304C84.9775 74.9838 85.257 74.9372 85.583 74.8907C85.6762 75.0304 85.7693 75.3565 86.0022 75.4496C87.3064 76.1017 88.1449 77.2662 88.8901 78.3841C89.1696 78.7567 89.2162 79.2691 89.4491 79.6883C89.9614 80.7131 90.1012 80.8994 89.9615 81.8775C89.8683 82.5762 89.7286 83.2749 89.1696 83.8338C88.9367 84.0667 88.7504 84.3462 88.7038 84.6723C88.6572 85.371 88.2846 85.5107 87.7257 85.4641C87.5859 85.4641 87.3996 85.4641 87.2599 85.5107C86.2817 85.7902 86.142 85.7436 85.6762 84.9983C84.9309 83.8804 84.6049 82.5762 84.1391 81.3186C83.813 80.4336 83.5801 79.502 83.3472 78.617Z" fill="#1E1E1E"/>
<path d="M67.1844 64.69C66.4857 64.2708 65.787 63.9447 65.1815 63.3392C64.1102 62.2679 62.9457 61.2431 61.9675 60.0787C60.9428 58.8676 59.8249 57.6565 59.2194 56.2592C59.2659 55.7002 60.0112 56.3058 60.0112 55.6536C60.0112 55.4673 60.477 55.281 60.7565 55.0947C61.4086 54.6289 61.7346 54.5823 62.2004 55.0481C62.6662 55.5139 63.1786 55.7002 63.7841 55.84C64.7157 56.0263 65.3678 56.7715 66.1596 57.1908C66.9981 57.6565 67.6036 58.4018 68.3023 59.0539C68.6749 59.38 69.0941 59.6594 69.4202 60.0321C69.7462 60.4047 70.0257 60.8705 70.1189 61.3363C70.1654 61.6158 69.9791 62.035 69.7462 62.3144C69.4667 62.6405 69.3736 63.0597 68.9078 63.246C68.6283 63.3392 68.6749 63.6187 68.6283 63.8981C68.5817 64.1776 68.4886 64.5502 67.9762 64.1776C67.6036 63.8981 67.3241 64.2708 67.1844 64.69Z" fill="#1E1E1E"/>
<path d="M118.328 57.3302C116.884 56.7247 116.279 55.6068 115.627 54.5355C115.068 53.6039 114.602 52.5791 114.183 51.601C113.763 50.5762 113.065 49.6447 113.391 48.3404C114.322 48.9925 114.229 50.2036 115.114 50.9954C114.975 49.6912 114.276 48.7131 113.95 47.3623C114.416 47.5952 114.602 47.6883 114.788 47.8281C114.835 47.5952 114.881 47.3623 114.928 47.1294C115.301 47.0362 115.673 46.9896 116.139 46.8965C116.279 47.0828 116.418 47.3623 116.605 47.6418C117.303 48.6665 117.35 48.6665 118.654 49.1323C118.794 49.1789 118.934 49.272 119.073 49.3652C120.098 50.0173 120.983 50.716 121.542 51.8339C121.728 52.2531 122.008 52.9983 122.008 53.4176C122.008 53.5107 122.101 53.6505 122.148 53.7436C122.334 53.9765 122.241 54.1628 122.055 54.256C121.496 54.582 121.216 55.2341 120.75 55.6068C120.517 55.7465 120.517 55.9794 120.471 56.2589C120.424 56.6315 119.726 57.0973 119.353 57.0041C119.167 56.9576 119.027 56.5849 118.747 56.8644C118.561 57.0041 118.468 57.1905 118.328 57.3302Z" fill="#1E1E1E"/>
<path d="M77.1988 27.7526C76.9659 27.7992 76.733 27.8458 76.4069 27.8924C76.5467 28.1253 76.6398 28.3116 76.733 28.4979C76.1275 29.1034 75.5219 29.7089 74.8698 30.3611C74.7767 30.3611 74.6369 30.3611 74.4972 30.3611C73.0532 30.6405 72.1217 29.8021 71.3298 28.8239C70.7243 28.0787 70.1653 27.2403 69.7461 26.3087C69.4667 25.7497 69.2803 25.1908 69.4201 24.4455C69.8393 25.3771 70.2585 26.2621 70.6311 27.1005C70.6777 27.1005 70.7709 27.0539 70.8174 27.0539C70.7709 26.9142 70.7709 26.7279 70.7243 26.5881C70.4448 25.9826 70.1653 25.3771 69.9325 24.7716C69.8393 24.4921 69.6064 24.166 70.1653 24.0263C70.3517 23.9797 70.4448 23.6071 70.5846 23.3742C70.7243 23.1879 70.8174 22.955 70.9106 22.8152C71.5161 22.7687 71.5161 23.281 71.8888 23.5139C71.7956 23.1879 71.7024 22.8618 71.6093 22.4426C71.7956 22.3029 72.0751 22.07 72.308 21.8837C72.4477 22.0234 72.6806 22.3029 72.8669 21.8371C73.0998 21.3247 73.3793 21.1384 73.8917 21.4645C73.9382 21.511 74.0314 21.511 74.078 21.511C74.6835 21.0452 75.0096 21.511 75.289 21.8837C75.9411 22.7687 76.2672 23.84 76.6398 24.8647C76.733 25.0976 76.9193 25.6566 76.2672 25.7031C76.2206 25.7031 76.2206 25.936 76.174 26.0292C76.3138 26.0758 76.5467 26.1689 76.5933 26.1224C76.9659 25.7497 77.1988 26.2155 77.1522 26.3087C76.9659 26.6813 77.4783 27.1937 77.1988 27.7526Z" fill="#1E1E1E"/>
<path d="M72.5875 0.643671C72.7272 0.783408 72.867 0.923146 73.0999 1.15604C73.1464 0.783409 73.193 0.503934 73.193 0.177881C73.7054 0.0847226 74.2643 -0.0550131 74.8233 -0.148171C75.1493 -0.19475 75.522 -0.19475 75.848 -0.148171C76.0809 -0.101592 75.8946 0.364197 76.3604 0.410776C76.6864 0.457355 76.9193 0.969725 77.1057 1.29578C77.292 1.57525 77.0125 2.22736 77.6646 2.18078C77.6646 2.59999 77.7112 3.0192 77.7112 3.43841C77.7112 3.48499 77.7112 3.53157 77.7112 3.57815C78.3167 4.18368 78.9688 4.83579 79.6209 5.48789C79.8072 5.48789 80.0401 5.44131 80.2264 5.48789C80.5525 5.53447 80.8786 5.86052 80.7388 6.04684C80.3662 6.46605 81.0183 6.79211 80.7854 7.11816C79.8072 7.39763 79.4812 7.44421 78.6893 7.30448C78.8757 7.72369 79.062 8.09632 79.2949 8.60869C79.1551 8.74842 79.0154 9.0279 78.8291 9.0279C77.8043 9.0279 76.6864 9.30737 75.7549 8.56211C75.522 8.37579 75.1959 8.18948 75.0096 7.95658C74.5438 7.39763 74.1712 6.79211 73.752 6.18658C73.5656 5.9071 73.3793 5.58105 73.193 5.30158C72.9135 4.83578 72.9601 4.18368 72.4477 3.85763C72.5409 3.29868 72.2149 2.87947 72.0285 2.41368C71.7025 1.62183 71.8888 1.0163 72.5875 0.643671Z" fill="#1E1E1E"/>
<path d="M31.365 43.403C31.5513 43.6825 31.6911 43.9154 31.9706 44.3346C32.0171 43.9154 32.0637 43.7291 32.0637 43.5893C32.1103 43.077 32.1103 43.077 32.7624 43.0304C32.8556 43.0304 32.9487 43.0304 32.9953 42.9838C33.2748 42.518 33.7406 42.3783 34.2063 42.518C34.7187 42.6577 35.2777 42.8906 35.6969 43.2167C37.2806 44.5209 38.2121 46.3375 38.9108 48.2006C39.0506 48.5267 38.9108 48.9459 38.9108 49.272C38.7245 49.272 38.5848 49.2254 38.445 49.2254C38.4916 49.6912 38.3519 50.0172 37.8395 50.1104C37.6998 50.157 37.4669 50.3899 37.4669 50.5296C37.4203 51.0885 36.8614 50.8091 36.675 51.0885C36.349 50.5762 35.8366 51.1817 35.464 50.8556C35.1379 50.5296 34.6721 50.2501 34.4392 49.8309C33.9269 48.9459 33.4611 48.0143 33.1816 47.0828C33.0419 46.5704 32.809 46.2443 32.4363 46.058C31.8308 45.6854 31.3185 45.2196 31.039 44.5675C30.7129 44.0551 30.6663 44.0551 31.365 43.403Z" fill="#1E1E1E"/>
<path d="M55.1669 28.6376C55.1669 28.4979 55.1204 28.3582 55.1669 28.1719C55.2135 28.0787 55.3533 27.9855 55.3998 27.8924C55.3998 27.7992 55.3067 27.6595 55.3067 27.5198C55.3067 27.4266 55.4464 27.2869 55.4464 27.1937C55.3998 27.054 55.2601 26.9142 55.1669 26.8211C55.0738 26.7745 54.934 26.7745 54.7943 26.7279C54.8875 27.0074 54.934 27.2403 54.9806 27.4266C54.5148 27.1471 54.049 26.9142 54.2354 26.2621C54.4217 26.3553 54.608 26.4019 54.8409 26.495C54.934 25.7032 54.1888 26.1224 53.9093 25.7497C54.3285 25.7963 54.608 25.5169 55.0272 25.5634C55.2135 25.61 55.493 25.1908 55.7725 24.9113C56.1917 25.2374 56.6575 25.61 57.1698 26.0758C57.2164 25.7497 57.263 25.5169 57.3096 25.2374C57.9151 25.0976 58.5672 25.0045 59.1727 24.8647C59.4988 25.284 59.7317 25.6566 60.0577 25.9826C60.3372 26.2621 60.7098 26.4484 60.9427 26.7279C61.688 27.5198 62.0141 28.5911 62.2935 29.5692C62.3867 29.9419 62.5264 30.5008 61.8277 30.594C61.8277 31.2461 61.1291 31.3392 60.803 31.805C60.3838 32.3174 59.6851 32.4105 58.9398 32.1311C57.8219 31.6653 57.0301 30.7803 56.3314 29.8953C55.9122 29.5692 55.493 29.15 55.1669 28.6376Z" fill="#1E1E1E"/>
<path d="M76.081 45.1268C76.2673 45.1733 76.5002 45.2665 76.7331 45.3597C76.7796 44.2883 75.6618 44.0089 75.522 43.0307C75.7549 43.1239 75.9412 43.1704 76.081 43.2636C76.3139 43.4499 76.4536 43.6362 76.7331 43.9157C76.6399 43.4033 76.5933 43.2636 76.2673 42.891C76.9194 42.0991 76.9194 42.0991 77.7112 42.0991C78.1304 42.5649 78.5031 43.217 79.062 43.5896C79.6675 43.9623 79.8539 44.6144 80.3197 45.0802C80.7389 45.4994 81.0183 46.1049 81.3444 46.6639C81.4841 46.9899 81.6239 47.3626 81.5773 47.6886C81.5307 48.1078 81.3444 48.7133 81.0649 48.8065C80.5991 48.9928 80.6923 49.3189 80.5526 49.6449C80.3662 50.0176 80.0868 50.4368 79.5744 50.5299C79.2949 50.5765 78.9223 50.8094 78.6894 50.7162C78.1304 50.4833 77.6181 50.1573 77.1989 49.7381C76.4536 48.9462 75.8015 48.0612 75.1494 47.1762C75.0096 46.9433 75.0562 46.5707 75.0096 46.1049C75.2425 46.2912 75.2891 46.3378 75.4754 46.4775C75.3357 45.7323 75.8946 45.4994 76.081 45.1268Z" fill="#1E1E1E"/>
<path d="M69.4202 91.7055C69.0941 91.5192 68.9078 91.426 68.7215 91.3329C68.442 92.3576 68.3488 92.4042 67.5104 92.0315C67.7433 92.5439 67.9296 92.9631 68.1159 93.4289C67.883 93.5687 67.6501 93.7084 67.4638 93.8015C67.0446 93.3823 66.6254 92.9631 66.1596 92.4973C65.8801 93.1029 66.6254 93.3823 66.5788 93.9879C65.8801 94.081 65.5075 93.6152 65.1349 93.196C64.902 92.9631 64.8088 92.6371 64.5759 92.4042C63.5978 91.426 62.7128 90.3547 61.8743 89.1902C61.7812 89.0971 61.688 89.0039 61.5949 88.9108C61.0825 88.445 60.5701 87.9792 60.5236 87.2339C61.0359 86.9544 61.2688 87.4202 61.5949 87.6997C61.9209 87.1407 61.1291 87.0476 61.1757 86.6284C61.2222 86.116 62.1538 86.7681 61.9209 85.9297C62.4333 85.9297 62.8525 85.9297 63.3183 85.9297C63.6909 86.2092 64.1101 86.4886 64.4828 86.7681C64.8554 87.0476 65.1349 87.4668 65.6007 87.6997C66.0665 87.9326 66.3925 88.445 66.7651 88.8176C67.0446 89.0505 67.1844 89.3765 67.6501 89.4697C67.9762 89.5629 68.1159 90.0286 68.5817 89.9355C68.7215 89.9355 68.9544 90.1684 69.0009 90.3081C69.2338 90.7739 69.2804 91.1 69.4202 91.7055Z" fill="#1E1E1E"/>
<path d="M60.6634 6.74559C61.0826 6.79217 61.4087 6.55927 61.7813 6.83875C61.595 6.93191 61.4087 6.97848 61.2689 7.02506C61.4087 7.53743 61.595 8.0498 61.6881 8.56217C61.7347 8.70191 61.6416 8.9348 61.5484 8.98138C61.036 9.21428 60.8963 9.72665 60.4771 10.0527C60.2908 10.1924 60.0579 10.239 59.825 10.239C59.7318 10.239 59.5921 10.0993 59.4523 10.0993C59.3126 10.0993 59.1729 10.239 59.0331 10.3322C58.8002 9.54033 58.8468 9.54033 57.9618 9.26086C57.4494 9.07454 57.3563 8.56217 56.9836 8.2827C56.8905 8.46901 56.8439 8.60875 56.7508 8.79507C56.611 8.65533 56.4247 8.51559 56.4247 8.42244C56.4247 6.93191 56.4247 6.88533 55.726 5.95375C55.3534 6.65243 56.0986 7.02506 56.1452 7.72375C55.9589 7.67717 55.6794 7.72375 55.6329 7.63059C55.3068 6.83875 54.7944 6.09348 55.3068 5.1619C55.4465 4.88243 55.4931 4.69611 55.8658 4.69611C56.0986 4.69611 56.3315 4.55637 56.5179 4.46322C57.0302 4.13716 57.496 3.81111 58.055 3.43848C58.1947 3.62479 58.2879 3.81111 58.2413 3.76453C58.6605 4.044 59.1263 3.25216 59.1729 4.09058C59.1729 4.32348 59.7318 3.76453 59.7318 4.37006C59.7318 4.60295 60.151 4.83585 60.3839 5.06874C60.2908 5.25506 60.2442 5.48796 60.151 5.67427C60.1976 5.72085 60.2908 5.76743 60.3373 5.81401C60.4305 5.58111 60.5702 5.3948 60.71 5.11532C60.9429 5.48796 61.0826 5.72085 61.2223 6.00032C61.0826 6.18664 60.8963 6.46612 60.6634 6.74559Z" fill="#1E1E1E"/>
<path d="M17.9969 44.7075C17.7175 44.3348 17.4846 44.0554 17.2051 43.7293C17.0654 44.0088 16.9722 44.1485 16.879 44.3814C16.4133 44.1485 16.0406 43.7759 15.7611 43.3567C15.1556 42.4717 14.6432 41.5401 14.0377 40.6551C13.6651 40.0961 13.6185 39.444 13.7582 38.7454C14.3172 38.6056 14.4569 39.3043 14.9227 39.4906C14.9227 39.0714 14.9227 38.6988 14.9227 38.233C15.8543 38.0932 16.6927 38.0001 17.5311 37.8604C18.3696 38.6056 18.9285 39.444 19.3477 40.3756C19.5806 40.9346 20.0464 41.3072 20.1862 41.9593C20.2327 42.1922 19.9067 42.5183 20.3259 42.7046C20.3259 42.7046 20.2327 42.984 20.1862 42.984C19.534 42.7512 19.3477 43.6827 18.7422 43.543C18.6956 43.543 18.6025 43.7759 18.5559 43.9156C18.5093 44.0554 18.4627 44.1951 18.3696 44.3348C18.323 44.428 18.2298 44.5212 17.9969 44.7075Z" fill="#1E1E1E"/>
<path d="M46.1307 60.0317C46.317 60.4509 46.4568 60.777 46.6431 61.1962C46.7828 60.8702 46.8294 60.7304 46.876 60.5907C46.9226 60.6373 47.0157 60.6373 47.0157 60.6838C47.1089 61.1031 47.3418 61.4757 47.6678 61.8017C47.8541 61.9881 47.9939 62.2675 48.1336 62.5004C48.3665 62.9196 48.6926 63.2457 49.2049 63.3388C49.2981 63.1525 49.3912 63.0128 49.3912 62.9196C49.6241 63.106 49.9036 63.2923 50.0899 63.432C50.0899 63.5717 50.0899 63.6649 50.0899 63.6649C49.857 63.8046 49.6241 63.9444 49.3912 64.0841C49.4378 64.4102 49.531 64.7362 49.5776 65.202C49.2049 65.0157 48.972 64.9225 48.6926 64.7828C48.5062 65.1089 48.3665 65.4349 48.1802 65.8075C47.9939 65.8075 47.8076 65.8541 47.5747 65.9007C47.5747 66.087 47.5747 66.3199 47.5747 66.4596C46.9226 66.9254 46.4102 66.8789 45.8512 66.3665C45.2457 65.8075 44.547 65.3417 43.9415 64.6896C44.221 64.5033 44.4539 64.3636 44.7333 64.1773C44.5936 63.6649 44.3607 63.1991 43.9881 62.7799C43.6154 62.3141 43.4291 61.7552 43.1497 61.2428C43.5223 60.777 43.8018 61.1031 44.1744 61.2894C44.1744 61.1496 44.2676 61.0099 44.221 60.9167C43.9881 60.3578 44.0812 60.0783 44.5936 60.0317C45.106 60.0317 45.6183 60.0317 46.1307 60.0317Z" fill="#1E1E1E"/>
<path d="M9.93871 65.0623C10.1716 65.3883 10.3113 65.6212 10.5442 65.9473C10.5908 65.761 10.684 65.6678 10.6374 65.5746C10.5442 65.1089 10.4511 64.6431 10.3113 64.1307C10.6374 64.1307 10.8237 64.1307 11.0566 64.1307C11.1032 64.2704 11.1963 64.4102 11.3361 64.7362C11.3361 64.2704 11.3361 63.991 11.3361 63.7115C11.4758 63.6649 11.6156 63.6649 11.7087 63.5717C11.895 63.432 12.2211 63.106 12.2677 63.106C12.5937 63.3854 12.9664 63.1991 13.2924 63.3389C13.7582 63.5252 14.224 63.8512 14.1774 64.4102C14.1774 64.5965 13.9445 64.7828 13.9911 64.9225C14.0377 65.0623 14.3637 65.0623 14.4569 65.202C14.55 65.2952 14.55 65.6212 14.4569 65.6678C14.1308 65.9473 14.1774 66.2733 14.224 66.5994C14.2706 67.0186 14.0842 67.2515 13.7116 67.3447C13.339 67.4378 13.2458 67.6707 13.1527 68.0433C13.0595 68.5557 12.6869 68.8818 12.0813 68.8818C11.895 68.8818 11.6621 68.8818 11.4758 68.9283C10.9635 69.0215 10.3579 68.9283 10.1716 68.5557C9.79898 67.6707 9.24003 66.7857 9.33319 65.7144C9.42634 65.3883 9.70582 65.2486 9.93871 65.0623Z" fill="#1E1E1E"/>
<path d="M50.6955 42.2386C51.0215 42.3318 51.3476 42.4249 51.7668 42.5647C51.9531 42.1454 51.9997 41.7728 51.6271 41.4002C52.0928 40.981 52.3723 41.5865 52.7915 41.5399C52.8381 41.307 52.8847 41.0741 52.9313 40.8412C53.2573 40.4686 53.5834 41.1673 54.0026 40.8412C54.4218 40.5152 54.515 41.2139 54.8876 41.307C55.0739 41.3536 55.2602 41.5399 55.4 41.7262C55.8658 42.3318 55.9589 43.1236 56.611 43.636C56.7507 43.7757 56.7042 44.1949 56.7042 44.5675C56.0055 44.1949 55.9589 45.3594 55.2602 45.0799C55.0273 45.406 55.2602 46.0581 54.4684 46.1047C54.3752 45.9649 54.2821 45.732 54.0957 45.4526C53.956 45.7786 53.8629 45.9183 53.7697 46.1047C53.3505 46.1978 53.1176 45.8252 52.9778 45.5923C52.5121 44.8004 51.9065 44.1949 51.1147 43.7291C50.6489 43.4031 50.3694 42.9373 50.6955 42.2386Z" fill="#1E1E1E"/>
<path d="M44.5004 8.46877C43.8949 8.93456 43.4757 9.30719 42.8702 9.7264C42.6373 9.7264 42.218 9.7264 41.7988 9.7264C41.3796 9.12087 41.2399 8.32903 40.6344 7.81666C40.5878 6.97824 39.9823 6.46587 39.4699 5.86034C39.3301 5.67402 39.3301 5.30139 39.2836 4.97534C39.4699 4.92876 39.6562 4.92876 39.7494 4.8356C40.7275 3.90402 41.6591 4.41639 42.4044 5.06849C43.0565 5.58086 43.6154 6.27955 44.0812 7.02481C44.4073 7.44403 44.4073 8.04955 44.5004 8.46877Z" fill="#1E1E1E"/>
</svg>
