<svg width="129" height="113" viewBox="0 0 129 113" fill="none" xmlns="http://www.w3.org/2000/svg">
<path d="M129.094 119.332C128.396 121.251 127.735 123.171 126.302 124.758C125.457 125.717 124.759 126.862 124.208 128.043C123.987 128.449 123.62 128.596 123.4 128.966C122.885 129.851 122.702 130.848 122.077 131.697C120.644 133.616 119.211 135.573 117.705 137.455C116.713 138.71 115.758 140.002 114.729 141.22C112.782 143.471 110.32 145.022 107.602 146.092C104.442 147.347 101.319 148.713 98.0859 149.746C92.0606 151.666 85.9251 152.441 79.5691 151.702C75.7482 151.26 72.0007 150.521 68.7309 148.565C63.4403 145.391 59.105 141.22 56.0556 135.831C55.9454 135.646 55.7985 135.462 55.6515 135.24C54.4023 133.542 53.2634 131.771 52.7123 129.704C52.4184 128.67 52.0143 127.674 51.5366 126.714C50.1773 123.835 50.4344 120.919 51.5366 118.04C52.6388 115.124 54.5126 112.651 56.6067 110.473C59.399 107.558 60.7216 104.162 61.1257 100.249C61.5299 96.5951 60.8685 93.0886 60.244 89.5452C59.8398 87.3675 59.5092 85.1898 59.0683 83.0121C58.3702 79.5056 56.7904 76.4051 55.1371 73.2677C53.0062 69.2076 51.3529 64.9259 50.361 60.4229C49.516 56.658 49.9568 52.9301 51.206 49.3867C51.9408 47.3197 52.896 45.3265 54.4391 43.6655C55.9454 42.0415 57.4885 40.4543 59.2887 39.1625C63.624 36.062 68.4002 33.8843 73.4703 32.2971C79.2752 30.4885 84.8964 28.3477 89.8195 24.6936C93.4935 21.9991 96.9837 19.0832 100.327 15.9827C104.883 11.7749 109.659 7.86239 115.17 4.98337C120.571 2.14127 126.155 -0.0364482 132.254 0.000462282C141.476 0.0742832 149.338 3.35931 154.922 10.9629C159.037 16.5733 159.735 23.0326 158.376 29.7503C158.119 30.9683 157.898 32.1864 157.604 33.4044C156.87 36.5049 155.62 39.347 153.783 41.9676C152.718 43.481 151.542 44.9574 150.477 46.4707C149.228 48.2424 147.795 49.8665 146.362 51.4536C144.672 53.2992 143.202 55.2554 141.77 57.2855C141.292 57.9868 140.484 58.4297 140.006 59.1679C138.206 62.0469 136.332 64.889 135.046 68.0633C134.348 69.7612 133.65 71.4591 133.503 73.3784C133.43 74.5596 133.503 75.7407 133.393 76.9218C133.246 78.6936 133.54 80.4283 133.834 82.1262C133.944 82.7906 133.136 83.3074 133.319 83.3812C134.238 83.6395 133.577 84.1563 133.613 84.5254C133.613 84.7469 133.466 85.0052 133.54 85.1898C134.385 88.6963 134.017 92.2766 134.091 95.8569C134.164 99.1419 134.458 102.501 133.577 105.749C133.246 106.93 133.025 108.148 132.658 109.329C132.254 110.732 131.482 112.061 131.372 113.537C131.188 115.604 130.16 117.339 129.388 119.221C129.351 119.221 129.168 119.295 129.094 119.332C129.168 118.262 130.086 117.45 130.086 116.305C129.315 117.966 128.36 119.517 127.955 121.325C128.36 120.661 128.727 119.996 129.094 119.332ZM102.384 22.5897C103.597 21.8514 104.552 20.818 105.507 19.7845C104.515 20.7441 103.23 21.4454 102.384 22.5897C101.503 22.9219 100.952 23.6601 100.327 24.2875C101.135 23.8815 101.833 23.3279 102.384 22.5897ZM114.215 7.30873C114.398 7.23491 114.619 7.23491 114.766 7.12418C118.991 4.87264 123.4 3.06403 128.066 1.95672C128.249 1.91981 128.47 1.91981 128.58 1.66143C128.249 1.69834 127.955 1.73525 127.661 1.80907C123.767 2.47346 120.167 3.98679 116.676 5.72158C115.831 6.20142 114.876 6.53361 114.215 7.30873C113.186 7.41946 112.561 8.2684 111.643 8.63751C111.496 8.71133 111.312 9.00661 111.569 9.22808C111.643 9.3019 111.753 9.37572 111.827 9.26499C112.341 8.2684 113.59 8.19458 114.215 7.30873ZM86.1822 147.605C86.8436 147.605 87.5049 147.679 88.1662 147.605C90.8482 147.31 93.4935 146.83 96.1387 146.313C100.07 145.575 103.707 143.877 107.418 142.512C109.145 141.884 110.761 140.998 111.937 139.485C115.795 134.428 118.881 129.003 121.085 122.986C122.849 118.188 125.126 113.611 127 108.849C128.323 105.454 129.205 101.91 129.572 98.2561C129.903 95.2294 129.719 92.1659 129.719 89.1392C129.719 86.6293 129.682 84.1194 129.866 81.6095C129.976 79.8378 129.572 77.9922 129.425 76.1836C129.168 73.0093 129.205 69.835 130.16 66.7346C131.042 63.8925 132.254 61.1611 133.76 58.5774C136.81 53.373 140.594 48.7592 144.598 44.2561C146.729 41.8569 148.86 39.4208 150.624 36.7264C153.894 31.7804 155.437 26.3176 155.326 20.375C155.216 15.7612 153.196 12.144 149.228 9.70791C142.321 5.46321 135.009 4.09752 127.184 6.68125C121.122 8.67442 115.721 11.8487 110.761 15.9089C107.675 18.4188 104.846 21.2609 101.797 23.7708C97.6083 27.2035 93.3465 30.5623 88.4234 32.8877C84.6024 34.6963 80.5978 35.9882 76.5564 37.1693C73.1029 38.2028 69.833 39.5685 66.7102 41.3771C63.1464 43.481 60.097 46.1385 58.0028 49.7927C57.7457 50.2356 57.7457 50.2356 57.1946 50.2356C57.0109 50.2356 57.0109 50.3832 56.9374 50.494C56.423 51.5275 56.0556 52.6348 56.0556 53.8159C56.0556 54.6279 56.3496 55.7722 56.0924 56.1413C55.2106 57.3962 55.8719 58.5774 56.0556 59.6108C56.2393 60.9027 56.6067 62.2315 56.9741 63.5603C57.9661 66.8084 59.105 70.0196 60.7216 73.0093C62.1912 75.7407 63.624 78.509 64.0649 81.6464C64.1751 82.5322 65.2773 83.5657 64.1016 84.5254C64.1016 84.5254 64.1751 84.5992 64.2119 84.673C64.8364 85.6327 65.1304 86.7031 65.1671 87.7735C65.2038 88.807 65.5712 89.8036 65.6447 90.8371C65.7182 92.4981 66.3428 94.159 65.9754 95.8569C65.8284 96.632 65.8652 97.481 65.8652 98.293C65.8652 100.102 65.2406 101.799 65.1671 103.608C65.1304 104.272 64.5425 105.158 64.2119 105.933C63.0362 108.702 60.9788 110.843 59.1785 113.131C57.4885 115.309 55.578 117.45 55.3943 120.439C55.3208 121.657 54.9534 122.912 55.578 124.056C57.2313 127.083 58.1131 130.553 60.3909 133.284C62.1544 135.388 63.3668 137.972 65.5345 139.817C67.6654 141.626 69.6861 143.545 72.1109 144.874C73.3233 145.538 74.5357 146.203 75.9319 146.498C79.3119 147.384 82.7287 147.679 86.1822 147.605ZM126.008 113.943C125.016 117.339 123.069 120.218 122.077 123.503C123.289 122.617 126.486 115.05 126.008 113.943ZM87.1742 28.237C90.5543 26.6867 93.3832 24.3983 96.102 21.8884C93.273 23.9923 90.4808 26.1331 87.4681 27.9786C87.3579 28.0524 87.2477 28.1262 87.1742 28.237ZM54.7697 45.8432C56.423 44.0715 58.1131 42.3368 59.8766 40.6758C57.7457 42.0046 56.0924 43.7763 54.7697 45.8432ZM51.8306 121.067C52.2347 119.959 52.4919 118.815 52.8225 117.671C52.1612 118.704 51.7938 119.849 51.8306 121.067ZM53.888 48.1686C53.8145 47.9102 53.7043 47.7995 53.4471 47.8364C53.043 47.9102 52.8225 48.1686 52.7858 48.5746C52.7858 48.7961 52.896 48.833 53.0797 48.7961C53.4838 48.7223 53.6675 48.427 53.888 48.1686Z" fill="#1E1E1E"/>
<path d="M113.884 102.722C113.847 102.464 113.884 102.242 113.627 102.132C113.59 102.501 113.296 102.87 113.774 103.202C114.068 103.387 113.774 103.719 113.7 103.94C113.039 106.007 112.378 108.111 111.753 110.215C111.129 112.208 110.431 114.164 109.953 116.194C109.732 117.228 109.218 118.151 108.851 119.11C108.667 119.553 108.52 119.959 108.52 120.439C108.52 121.436 108.447 121.436 107.565 120.919C107.491 120.882 107.381 120.919 107.271 120.882C107.271 120.993 107.234 121.104 107.271 121.177C107.859 122.137 107.712 123.281 107.05 124.204C106.61 124.795 106.205 125.422 106.022 126.234C105.728 127.452 104.92 128.375 103.964 129.187C103.891 129.261 103.67 129.224 103.67 129.408C103.634 130.405 102.825 130.885 102.238 131.475C101.65 132.029 100.952 132.435 100.437 133.063C99.5188 134.133 98.4901 135.019 97.2042 135.72C96.6164 136.052 96.0285 136.68 95.3672 136.938C92.9791 137.898 90.6278 138.931 88.203 139.817C84.0881 141.294 80.0467 140.851 76.0054 139.891C73.6173 139.3 71.4496 138.23 69.4657 136.754C68.6942 136.2 68.1063 135.499 67.4817 134.797C65.0937 132.14 63.4404 129.076 62.5954 125.607C62.0443 123.392 62.4117 121.214 63.5138 119.221C63.8078 118.704 64.0282 118.003 65.0202 118.114C65.4611 118.151 65.8652 117.376 66.1959 116.859C68.5472 113.279 70.4577 109.44 72.0007 105.417C73.6173 101.209 75.0501 96.9272 75.5645 92.3872C75.9686 89.1022 75.5278 85.9279 74.7195 82.7536C74.0949 80.2068 72.7723 78.066 71.2659 75.999C70.127 74.4488 69.135 72.8247 67.9961 71.2376C67.592 70.6839 68.1063 70.3148 68.2165 69.6135C67.592 70.4624 67.5185 70.2779 67.2613 69.5766C67.0041 68.8753 66.5265 68.2478 66.1591 67.5834C65.3508 66.1439 64.91 64.5937 64.8732 63.0065C64.8732 62.416 64.5426 61.8992 64.616 61.3086C64.7263 60.5704 64.763 59.8322 64.9834 59.1309C65.3508 57.9129 65.5713 56.5841 66.7837 55.7721C67.1143 55.5506 66.9306 54.8124 67.298 54.4064C68.9146 52.6716 70.4209 50.8261 72.4416 49.5342C77.2178 46.4706 82.2511 43.85 87.5049 41.6723C91.1789 40.159 94.6692 38.2027 97.5349 35.3606C101.797 31.1897 106.242 27.2403 110.835 23.4385C115.207 19.8582 119.836 16.7577 125.2 14.8384C127.441 14.0264 129.756 13.5465 132.144 13.3989C135.524 13.1774 138.096 14.7277 140.043 17.3114C143.827 22.2574 144.709 27.8309 143.276 33.8473C142.284 37.8705 140.851 41.7461 138.83 45.3633C137.875 47.0612 136.957 48.796 135.377 50.0879C134.642 50.7153 134.238 51.7488 133.65 52.5978C131.666 55.4768 129.168 57.9129 127.221 60.7919C126.339 62.0838 125.604 63.4125 124.759 64.7413C122.959 67.5834 121.71 70.7208 120.387 73.7844C119.211 76.4788 118.77 79.4317 118.33 82.3107C117.852 85.4481 117.374 88.5855 116.86 91.7229C116.566 93.5315 116.346 95.377 115.684 97.0749C115.243 98.256 115.207 99.511 114.692 100.655C114.325 101.283 114.656 102.169 113.884 102.722ZM71.5231 108.739C71.817 108.628 71.8905 108.333 71.964 108.111C72.8825 105.933 73.9112 103.793 74.5358 101.504C74.9032 100.175 75.5278 98.8835 75.5278 97.444C74.8664 99.9908 73.7642 102.353 72.956 104.826C72.5151 106.192 71.7436 107.373 71.5231 108.739C70.4209 110.289 69.8331 112.097 68.9146 113.721C69.8698 112.134 71.0455 110.621 71.5231 108.739ZM72.5518 72.7878C72.5518 72.6771 72.5518 72.4925 72.6253 72.4187C72.7723 72.308 72.809 72.4925 72.9192 72.5663C73.1764 72.8247 73.0662 73.2676 73.3968 73.526C74.0214 74.0427 74.4623 74.6702 74.7562 75.4823C75.0134 76.1466 75.7482 76.6634 76.2258 77.254C76.336 77.4016 76.483 77.6231 76.336 77.8076C76.0789 78.1767 76.2993 78.2875 76.5932 78.3613C76.9606 78.472 77.1443 78.7304 77.2545 79.0626C77.6954 80.2068 78.2832 81.2772 78.4302 82.5322C78.5037 83.3442 78.6506 84.3039 78.9446 84.8944C79.7896 86.5185 79.7896 88.2533 79.7161 89.9142C79.6426 91.3907 79.3487 92.9409 79.4222 94.4173C79.4956 95.7092 78.8343 96.7427 78.6506 97.9607C78.4302 99.4002 77.4382 100.692 77.2178 102.205C77.1076 103.128 76.1156 103.829 76.1156 104.568C76.1523 106.266 74.646 107.188 74.3888 108.702C74.3153 109.182 74.0949 109.92 73.6908 110.4C72.809 111.359 72.5886 112.651 71.6701 113.611C70.5311 114.792 69.9433 116.416 68.7309 117.597C67.9961 118.298 67.445 119.221 66.8204 120.033C66.2326 120.771 66.3061 121.916 66.1224 122.912C65.8652 124.315 66.6735 125.422 67.0409 126.677C67.9226 129.667 69.7229 132.103 71.8538 134.096C76.0054 137.972 81.002 139.264 86.5497 137.233C87.1008 137.012 87.6886 136.827 88.2397 136.643C91.583 135.536 94.4487 133.653 97.1307 131.402C100.621 128.412 102.274 124.278 104.222 120.328C104.883 118.963 105.177 117.265 105.691 115.752C106.059 114.718 106.426 113.648 106.646 112.577C106.904 111.507 107.234 110.436 107.528 109.403C107.859 108.333 108.3 107.336 108.557 106.266C108.777 105.306 109.255 104.457 109.439 103.497C109.696 102.169 110.137 100.877 110.467 99.5479C111.753 94.8233 112.708 90.025 113.296 85.1897C113.627 82.4952 113.847 79.7639 114.398 77.1432C116.199 68.58 120.13 61.0134 125.531 54.2218C127.955 51.1952 130.49 48.2793 133.025 45.3264C136.663 41.1186 138.61 36.0988 140.08 30.8206C140.998 27.5356 140.851 24.3244 139.639 21.1501C138.941 19.3415 137.949 17.8281 135.781 17.4959C133.797 17.1637 131.85 17.6436 129.939 17.9758C128.8 18.1972 127.588 18.714 126.486 19.2676C123.767 20.5964 121.048 21.8145 118.697 23.7338C118.146 24.1767 117.448 24.2505 116.897 24.6935C116.199 25.284 115.684 26.0592 114.913 26.5759C114.472 26.8712 113.921 26.9081 113.517 27.2772C110.908 29.7133 107.932 31.7434 105.581 34.4747C104.773 35.4344 103.744 36.2095 102.862 37.0954C99.5188 40.4173 95.5877 42.8903 91.1789 44.5144C85.7782 46.5076 80.7448 49.1651 76.0421 52.4501C74.2419 53.7051 72.2947 54.8862 71.0088 56.7687C70.274 57.876 69.282 58.9833 69.1718 60.2382C68.9881 62.1207 68.8044 64.04 69.429 65.9225C69.5759 66.3654 69.3187 66.9929 69.3922 67.1405C69.7596 67.7311 69.98 68.3955 70.3842 68.9491C71.2292 70.1302 72.4049 71.1637 72.5518 72.7878ZM109.696 106.229C108.667 108.296 108.006 110.547 107.418 112.762C106.793 115.05 105.948 117.228 105.213 119.48C104.515 121.583 103.523 123.613 102.642 125.644C106.352 119.627 107.712 112.836 109.696 106.229ZM111.202 24.7304C115.537 21.2977 120.093 18.2711 125.2 16.1302C121.857 16.5732 112.598 22.7003 111.202 24.7304ZM72.6253 50.7523C70.0168 52.524 67.7022 54.554 66.6 57.6545C68.3635 55.1446 70.3474 52.8192 72.6253 50.7523ZM64.2486 119.738C63.1465 120.845 62.6321 124.278 63.3669 124.979C63.5873 123.207 63.5873 121.436 64.2486 119.738ZM107.675 27.8678C107.602 27.794 107.528 27.7201 107.455 27.6463C105.581 29.3811 103.523 30.9313 101.87 32.9614C103.817 31.2266 105.728 29.5657 107.675 27.8678ZM95.2203 38.7564C97.3879 37.5014 99.1147 35.7297 100.768 33.8842C98.8942 35.5082 97.094 37.1692 95.2203 38.7564Z" fill="#1E1E1E"/>
<path d="M119.358 55.1076C119.726 55.6982 119.579 56.1042 119.358 56.6948C118.77 58.1343 117.595 59.2416 117.374 60.8288C117.301 61.3824 116.86 61.8253 116.566 62.3052C115.868 63.5232 115.758 64.9627 115.133 66.1439C114.545 67.2881 114.288 68.5061 113.7 69.6135C113.37 70.204 113.48 70.9422 113.076 71.4959C112.782 71.865 112.121 74.2642 112.01 74.7071C111.827 75.8513 111.569 76.9955 111.349 78.1398C111.312 78.3243 111.239 78.5458 110.945 78.5089C110.651 78.472 110.541 78.5827 110.651 78.8411C111.055 79.7638 110.577 80.5759 110.21 81.3141C109.181 83.418 108.3 85.5957 107.381 87.7365C107.197 88.1794 106.389 88.0318 106.683 88.8807C106.83 89.3236 106.352 90.0618 106.022 90.6155C105.691 91.1692 105.471 91.7597 105.177 92.3134C103.009 96.4474 101.025 100.692 99.1514 104.974C98.1227 107.336 96.8735 109.624 95.7713 111.987C95.4774 112.577 95.2937 113.242 95.11 113.869C94.9263 114.46 94.6691 115.272 93.9711 115.641C93.8241 115.715 93.7506 115.752 93.7139 115.899C92.8321 118.631 90.5175 120.07 88.4234 121.694C86.9538 122.838 85.1168 123.54 83.4267 124.315C82.398 124.795 81.4061 125.607 80.1936 125.754C78.9812 125.939 77.7688 126.16 76.5197 126.16C75.3072 126.197 74.2051 125.902 73.2131 125.201C72.6987 124.831 72.6252 124.389 72.8457 123.798C73.3968 122.358 74.2418 121.14 75.5644 120.292C76.0788 119.959 76.5931 119.664 76.9238 119.147C77.1442 118.778 77.5484 119.258 77.9893 118.815C79.5691 117.265 80.5243 115.382 81.5163 113.5C83.5737 109.587 85.1535 105.454 86.6231 101.32C87.2844 99.5109 87.6151 97.6285 87.909 95.7461C88.0927 94.5649 88.2029 93.3469 88.3131 92.1657C88.3499 91.6121 88.5703 91.1692 89.2684 91.5014C89.6725 91.6859 89.7827 91.3906 90.0032 91.2061C90.1501 91.0584 90.1134 90.8739 89.9664 90.7631C89.746 90.5417 89.5255 90.7631 89.3418 90.8739C88.5703 91.243 88.3499 91.0215 88.3866 90.1726C88.4968 87.8841 88.5336 85.5588 87.9457 83.3072C87.6518 82.163 87.2477 81.0926 86.6966 80.0591C85.1168 77.0694 83.0593 74.3749 81.2591 71.5328C79.9365 69.4658 78.5771 67.3619 78.2832 64.8151C78.2097 64.2245 77.7321 63.4863 78.5771 63.0065C78.6138 62.9696 78.6506 62.8958 78.6506 62.8588C78.5036 60.5335 78.5771 60.4597 80.1569 58.8356C81.1856 57.7652 82.4348 57.027 83.6839 56.4364C88.3499 54.2956 92.281 51.1213 96.1387 47.7625C100.841 43.6654 105.103 39.0885 109.99 35.2498C115.317 31.0051 121.452 28.1261 127.919 26.1329C131.335 25.0625 133.87 27.6463 133.136 31.2266C132.401 34.8069 131.041 38.1288 129.241 41.3031C127.184 44.9573 124.832 48.3899 122.555 51.8964C121.93 52.8561 121.416 53.8896 120.644 54.7754C120.313 55.2553 120.02 55.6613 119.358 55.1076ZM83.7207 111.359C84.0146 111.322 84.0881 111.101 84.1983 110.916C85.5209 108.333 86.4761 105.564 87.6886 102.944C88.2764 101.689 88.056 100.138 89.0112 99.0311C89.1581 98.8465 89.1214 98.662 88.901 98.5512C88.607 98.4036 88.4233 98.6251 88.3866 98.8834C88.2397 99.8431 87.7988 100.692 87.4681 101.578C86.6598 103.903 85.9618 106.229 84.8596 108.443C84.4187 109.329 83.9044 110.289 83.7207 111.359C82.9491 112.466 82.3613 113.648 81.8837 114.939C82.4715 113.721 83.537 112.762 83.7207 111.359ZM109.622 41.7461C108.447 42.2628 107.859 43.407 107.014 44.2929C105.911 44.9573 105.287 46.1015 104.295 46.8766C102.605 48.2423 100.841 49.5342 99.2616 51.0106C95.955 54.0741 92.3178 56.5471 88.3131 58.5034C86.8068 59.2416 85.08 59.3893 83.7941 60.6442C83.0226 61.4193 82.0674 62.0468 81.9939 63.2279C81.8837 64.9996 82.1776 66.7344 83.0226 68.3585C84.6024 71.3113 86.7333 73.932 88.607 76.7003C90.5543 79.5793 92.281 82.5321 92.7219 86.1124C93.126 89.5451 92.9056 92.9409 92.6852 96.3735C92.6484 97.0748 92.1708 97.7392 92.1708 98.5143C92.1341 99.6217 92.1341 100.877 91.436 101.799C90.1501 103.46 89.746 105.454 88.901 107.299C88.6438 107.89 88.7907 108.775 88.2764 109.255C87.5783 109.883 87.3946 110.695 87.064 111.433C86.917 111.728 86.7333 112.024 86.5129 112.282C85.7413 113.057 85.2637 114.054 84.7494 114.903C83.7207 116.6 82.545 118.114 81.0754 119.443C80.6713 119.812 79.9732 119.775 79.7528 120.365C79.4956 120.956 79.018 121.399 78.5403 121.805C78.026 122.211 77.8056 122.765 77.5851 123.429C77.9525 123.54 78.173 123.392 78.4301 123.281C79.9365 122.728 81.2224 121.731 82.6919 121.067C85.2637 119.885 87.3946 118.188 89.1214 115.936C90.4073 114.238 91.2523 112.319 92.1708 110.436C93.9711 106.672 95.8448 102.944 97.5348 99.1418C98.4901 97.001 99.482 94.8971 100.547 92.8301C102.311 89.3605 103.854 85.8171 105.397 82.2737C106.61 79.4316 107.638 76.4788 108.3 73.4521C108.887 70.7946 109.879 68.2847 110.871 65.7379C112.745 60.9395 114.656 56.1411 117.742 51.9333C120.497 48.1685 123.326 44.4036 125.824 40.4542C127.698 37.5014 129.315 34.4378 130.123 30.9682C130.196 30.5991 130.49 30.1193 130.16 29.8609C129.903 29.6394 129.462 29.9347 129.131 30.0824C125.604 31.4849 122.261 33.1459 118.991 35.0284C118.403 35.3605 117.889 36.1357 116.97 35.7666C116.86 35.7297 116.566 35.8773 116.64 36.0618C116.897 36.6155 116.382 36.6155 116.162 36.7262C114.876 37.5752 113.59 38.461 112.341 39.3469C111.275 40.0113 110.577 41.0448 109.622 41.7461ZM90.591 115.604C91.2891 114.46 92.1341 113.426 92.7219 112.171C94.0078 109.329 95.5141 106.561 96.7633 103.682C98.6003 99.4002 100.547 95.1555 102.789 91.0584C102.936 90.8001 103.046 90.5417 102.678 90.1726C98.1961 98.5143 94.963 107.336 90.591 115.604ZM109.365 37.3168C111.974 35.3975 114.656 33.5519 117.521 32.0386C120.424 30.4884 123.4 29.0489 126.376 27.6832C120.313 30.1562 114.288 32.7768 109.365 37.3168ZM101.319 44.9942C101.246 44.9204 101.209 44.8465 101.135 44.7358C98.3431 47.135 95.5876 49.5711 92.7954 51.9703C92.8689 52.0441 92.9056 52.1179 92.9791 52.1917C95.7713 49.7925 98.5635 47.3934 101.319 44.9942ZM83.6839 57.6545C81.5898 58.0605 79.4588 60.0167 79.6793 61.3455C80.6713 59.6845 82.1408 58.6141 83.6839 57.6545ZM102.825 89.8404C102.936 89.8773 103.009 89.9511 103.119 89.988C103.45 89.1391 104.368 88.5116 103.928 87.3674C103.56 88.1794 103.193 89.0284 102.825 89.8404Z" fill="#1E1E1E"/>
<path d="M109.622 41.7461C109.034 42.8903 108.116 43.6654 107.014 44.2929C107.859 43.4071 108.447 42.2628 109.622 41.7461Z" fill="#1E1E1E"/>
<path d="M7.49907 47.6007C7.58545 47.6871 7.64304 47.7159 7.70063 47.7735C7.78701 47.4855 7.78701 47.2264 7.55666 46.996C7.70063 46.996 7.75821 46.996 7.8158 46.996C7.84459 46.9672 7.90218 46.9097 7.90218 46.8809C7.84459 46.6217 7.95977 46.3626 8.07494 46.161C8.21891 45.9307 8.47805 45.7579 8.39167 45.4124C8.39167 45.3836 8.39167 45.3548 8.39167 45.326C8.88115 44.9805 8.93874 44.3183 9.34185 43.9151C9.48581 43.7712 9.48581 43.9727 9.62978 44.0015C9.68737 43.4257 9.60099 42.7922 10.1481 42.2739C10.1481 42.2739 10.292 42.2451 10.4072 42.2451C10.4936 42.2163 10.4648 42.1875 10.4072 42.13C10.2344 41.986 10.2344 41.7844 10.3784 41.6693C10.7815 41.2374 10.9255 40.6903 11.1846 40.2008C11.6453 39.2794 12.2212 38.4444 12.7395 37.5518C13.2577 36.6592 13.8048 35.7954 14.3807 34.9316C15.1293 33.8087 15.8779 32.6569 16.6554 31.5628C17.1736 30.843 17.6919 30.1231 18.1526 29.3745C18.6133 28.6547 19.1892 28.0212 19.6787 27.3302C20.2545 26.524 20.9168 25.7753 21.4639 24.9403C21.723 24.5084 22.1549 24.1917 22.4428 23.7886C23.5658 22.2337 24.9766 20.938 26.3299 19.5847C26.5603 19.3544 26.8194 19.0665 27.2801 19.0953C27.1362 19.5272 26.9922 19.9015 26.6755 20.1894C26.2148 20.6213 25.7829 21.082 25.351 21.5139C25.1206 21.7443 24.8615 21.917 24.6887 22.1762C24.516 22.4353 24.2856 22.6081 24.1128 22.8672C23.9401 23.1263 23.7385 23.3279 23.537 23.5582C23.2203 23.9901 22.8459 24.3644 22.4716 24.7676C22.0109 25.2858 21.6942 25.8905 21.2623 26.4088C20.8016 26.9271 20.4273 27.5317 19.9954 28.0788C19.8514 28.2516 19.6499 28.3667 19.6787 28.6547C19.6787 28.7698 19.5059 28.9138 19.3907 29.0002C18.9876 29.3457 18.7285 29.8352 18.4406 30.2671C18.1526 30.7278 17.8647 31.1885 17.548 31.6204C16.6842 32.9161 15.8491 34.2118 14.9566 35.4787C14.3807 36.2849 14.0064 37.2063 13.4017 37.9837C13.4017 38.358 12.9698 38.4444 12.8834 38.7899C12.8258 39.0491 12.7107 39.337 12.4803 39.5673C12.3076 39.7401 12.106 39.9129 12.0196 40.1432C11.9045 40.4024 11.8181 40.6327 11.6741 40.863C11.5301 41.0934 11.415 41.3525 11.2422 41.5541C11.0695 41.7556 11.0119 42.0436 10.8391 42.2451C10.7527 42.3603 10.8103 42.5906 10.6088 42.5906C10.4072 42.5906 10.3784 42.7058 10.4072 42.8498C10.4648 43.1089 10.2632 43.3105 10.1769 43.5408C10.0617 43.5984 9.91772 43.4832 9.77375 43.6272C10.0329 44.0879 9.5722 44.4622 9.60099 44.8941C9.1403 44.9805 9.31305 45.47 9.1115 45.7003C8.88115 45.9595 8.93874 46.305 8.73719 46.5641C8.42046 46.996 8.2477 47.5143 8.04615 48.0038C7.8158 48.4645 7.61425 48.9252 7.35511 49.3571C7.23993 49.5299 7.26873 49.6162 7.44149 49.789C6.89441 50.0193 7.18235 50.8543 6.4913 50.9983C6.54889 51.0847 6.63527 51.1711 6.63527 51.2287C6.46251 51.7181 6.37613 52.2076 6.11699 52.6683C5.91544 53.0138 5.71388 53.417 5.71388 53.8201C5.71388 54.0216 5.59871 54.1944 5.51233 54.2808C5.02284 54.9718 4.96526 55.778 4.7637 56.5554C4.59094 57.1601 4.3606 57.7648 4.18784 58.3406C3.92869 59.0892 3.64076 59.8091 3.49679 60.5865C3.41041 61.0472 3.18007 61.5079 3.06489 61.9686C2.97851 62.3141 2.80575 62.6308 2.86334 62.9764C2.92093 63.2355 2.63299 63.4083 2.66179 63.6962C2.66179 63.8114 2.46023 64.0129 2.54661 64.1569C2.66179 64.3584 2.20109 64.416 2.48903 64.5888C2.37385 64.9343 2.34506 65.3086 2.14351 65.5965C1.85557 66.086 1.88437 66.6331 1.7404 67.1514C1.51005 67.9864 1.59643 68.879 1.25091 69.714C1.39488 70.0883 0.934185 70.4626 1.25091 70.8369C1.33729 70.9233 1.10695 71.0673 1.07815 71.24C0.962978 72.1326 0.732631 73.0252 0.790218 73.9466C0.790218 74.1482 0.531078 74.3209 0.761425 74.5225C0.502284 74.724 0.646251 75.012 0.617458 75.2423C0.588664 75.4727 0.703838 75.7606 0.588664 75.9334C0.329524 76.3941 0.703838 76.7972 0.617458 77.2291C0.531078 77.6034 0.703838 78.0065 0.444698 78.352C0.415904 78.4096 0.415904 78.5248 0.444698 78.5824C0.703838 78.8703 0.617458 79.2158 0.588664 79.5325C0.531078 80.0796 0.819011 80.5691 0.761425 81.1162C0.761425 81.1738 0.905391 81.2601 1.02056 81.3753C1.02056 80.857 1.19333 80.3675 0.934185 79.8781C0.876598 79.7629 0.905391 79.5901 0.905391 79.4174C0.905391 78.496 0.934185 77.5746 0.905391 76.682C0.905391 76.2789 1.13574 75.9046 1.07815 75.5015C1.02056 75.1272 0.962978 74.6665 1.10695 74.3497C1.25091 73.9754 1.10695 73.5723 1.27971 73.2556C1.45247 72.9101 1.3085 72.5358 1.39488 72.1902C1.56764 71.4704 1.53885 70.693 1.71161 69.9731C1.85557 69.3685 1.94195 68.7638 2.11471 68.188C2.14351 68.044 1.88437 67.9864 2.11471 67.8424C2.25868 67.7561 2.14351 67.5545 2.1723 67.4105C2.1723 67.2666 2.37385 67.2378 2.34506 67.0938C2.28747 66.921 2.48903 66.8059 2.48903 66.6907C2.51782 66.3164 2.57541 65.9421 2.63299 65.5678C2.77696 64.8479 2.97851 64.1281 3.15127 63.4083C3.49679 63.1779 3.15127 62.7748 3.41041 62.4869C3.61197 62.2853 3.55438 61.911 3.61197 61.6231C3.84231 60.6729 4.10146 59.7515 4.41818 58.8301C4.64853 58.1967 4.93646 57.5632 5.02284 56.8722C5.05164 56.5842 5.2244 56.2675 5.36836 56.0084C5.74268 55.2021 5.94423 54.3671 6.23216 53.5321C6.37613 53.129 6.57768 52.7835 6.75044 52.4092C7.00958 51.7757 7.12476 51.1135 7.49907 50.5088C7.72942 50.1345 7.72942 49.5874 8.13253 49.2707C7.95977 48.8388 8.42046 48.6085 8.47805 48.2341C8.53563 47.8598 8.82357 47.5431 8.93874 47.1688C9.05391 46.8233 9.22667 46.5065 9.39944 46.1898C9.5722 45.8731 9.77375 45.5564 9.94651 45.2396C10.0617 45.2396 10.1481 45.2396 10.3208 45.2396C10.2632 45.0669 10.1193 44.8941 10.1769 44.7214C10.2344 44.6062 10.3496 44.635 10.436 44.6062C10.4648 44.5486 10.4936 44.5198 10.4936 44.4622C10.4936 43.9151 10.6951 43.4257 10.9831 43.0225C11.5014 42.3027 11.7893 41.4965 12.1924 40.7767C12.6819 39.9129 13.229 39.0491 13.6896 38.1853C14.2367 37.1487 14.9566 36.1985 15.5324 35.1908C15.9067 34.4709 16.425 33.8375 16.8857 33.1464C17.4616 32.2826 18.095 31.4476 18.6421 30.5838C19.1028 29.864 19.6211 29.2305 20.1106 28.5395C20.6001 27.8484 21.0607 27.1286 21.6366 26.4952C22.1261 25.9193 22.5292 25.2858 22.9899 24.71C23.4794 24.0477 24.0265 23.4431 24.516 22.752C24.8327 22.3201 25.207 21.8594 25.6101 21.4563C26.3011 20.7653 26.9634 20.0742 27.6544 19.412C27.7408 19.3256 27.7984 19.1816 28 19.2104C28.2015 19.412 28.0863 19.6135 27.9136 19.8151C28.2879 19.9015 28.3167 19.5272 28.5758 19.5272C28.7198 19.556 28.7486 19.6999 28.8638 19.7575C28.6046 19.8439 28.9213 20.0454 28.7774 20.1318C28.6334 20.247 28.7486 20.4486 28.547 20.5061C28.5758 20.6789 28.7774 20.5349 28.8638 20.7653C28.6334 21.082 28.3743 21.4275 28.0863 21.773C27.8848 22.0034 27.6544 22.2049 27.5105 22.4929C27.3953 22.7232 27.0498 22.8384 27.1074 23.1839C27.1074 23.2415 26.9922 23.2415 26.9346 23.2991C26.5603 23.5582 26.2148 24.0765 26.0132 24.5948C25.898 24.8827 25.6965 25.1419 25.5237 25.401C25.207 25.8329 24.8327 26.2648 24.5447 26.7255C24.4872 26.8119 24.4008 26.8407 24.3144 26.8983C23.9113 27.1286 23.6234 27.4453 23.5082 27.9348C23.4506 28.194 23.3642 28.2516 23.0763 28.5395C22.9323 28.6835 22.8171 28.8562 22.7308 29.0002C22.2701 29.6336 21.867 30.3247 21.4063 30.9581C21.1183 31.3324 21.1471 31.8795 20.7152 32.1674C20.8016 32.513 20.4561 32.6281 20.3121 32.8585C19.9666 33.4056 19.4771 33.9238 19.3044 34.5573C19.2468 34.7876 18.8437 34.6437 18.9588 34.9604C18.5845 35.4787 18.383 36.0833 18.0087 36.6016C17.8647 36.8032 17.6055 36.9759 17.5768 37.1775C17.5192 37.6094 16.9721 37.811 17.0585 38.3004C16.6266 38.502 16.6266 38.9339 16.4538 39.2794C16.3386 39.5673 16.0219 39.7113 15.9643 40.0856C15.9355 40.4024 15.6764 40.6903 15.5036 40.9782C15.3309 41.2662 15.0717 41.5253 15.0141 41.8708C14.611 41.9284 14.611 42.3315 14.4959 42.5906C14.3519 42.8786 14.1215 43.1089 14.1215 43.4544C14.1215 43.7136 13.6609 43.656 13.8048 44.0303C13.8912 44.2607 13.6321 44.4334 13.5457 44.635C13.4593 44.8365 13.4593 45.0957 13.1138 45.0957C13.0274 45.0957 12.9122 45.2396 12.8546 45.3548C12.5955 45.7579 12.5667 46.3338 12.0772 46.5929C12.106 46.8809 11.8469 47.1112 11.8181 47.3416C11.7605 48.119 11.271 48.6948 10.9543 49.3571C10.7239 49.8466 10.6951 50.4224 10.2344 50.7968C10.3208 51.1999 9.91772 51.459 9.88892 51.8333C9.83134 52.2652 9.48581 52.5532 9.42823 52.9851C9.37064 53.3882 9.1115 53.7337 8.96753 54.1368C8.93874 54.1944 8.85236 54.252 8.76598 54.3383C8.96753 55.0294 8.21891 55.5765 8.33408 56.3827C8.47805 56.0659 8.59322 55.8644 8.73719 55.5477C8.76598 56.2675 8.36287 56.757 8.2477 57.3041C8.13253 57.8511 7.84459 58.3982 7.67183 58.9453C7.47028 59.4924 7.21114 60.0106 7.09597 60.5865C6.952 61.1624 6.69286 61.6806 6.57768 62.2565C6.46251 62.8324 6.23216 63.3795 6.0594 63.9553C5.94423 63.9553 5.82906 63.9841 5.71388 63.9841C5.39716 64.3872 5.56992 64.9055 5.33957 65.3086C5.31078 65.3662 5.36836 65.4814 5.33957 65.539C4.99405 65.9709 5.08043 66.5179 4.87888 67.0074C4.64853 67.4969 4.7637 68.044 4.56215 68.5335C4.3318 69.1093 4.3318 69.7428 4.13025 70.3187C4.01508 70.6066 4.18784 70.9809 3.92869 71.2688C4.01508 71.7295 3.84231 72.1614 3.75593 72.6221C3.69835 73.0252 3.58317 73.3996 3.61197 73.8027C3.23765 74.0906 3.66955 74.6089 3.29524 74.9256C3.23765 74.9832 3.29524 75.1272 3.29524 75.2423C3.35283 75.9046 3.15127 76.538 3.06489 77.1715C3.0361 77.373 3.23765 77.517 3.15127 77.7186C2.83455 78.5248 3.06489 79.3598 2.97851 80.166C2.94972 80.5115 3.0361 80.7994 3.20886 81.0874C3.23765 81.0586 3.29524 81.0298 3.32403 81.001C3.75593 81.1162 3.84231 81.4617 3.75593 81.8072C3.66955 82.0951 3.35283 82.0664 3.09369 82.0376C2.94972 82.2967 2.83455 82.6134 2.46023 82.5271C2.22989 82.4695 2.08592 82.6134 1.88437 82.6998C1.68281 82.5846 1.51005 82.4119 1.3085 82.3831C0.876598 82.3543 0.675045 82.0664 0.502284 81.7496C0.329524 81.4329 0.243144 81.0874 0.156764 80.7131C-0.0735831 79.7053 0.0415904 78.7263 0.0127971 77.7186C-0.0159963 76.7108 0.0127971 75.7318 0.0127971 74.724C0.0127971 74.3785 0.243144 74.0618 0.185557 73.6875C0.156764 73.342 0.0415904 72.9677 0.329524 72.6509C0.214351 72.0751 0.559871 71.5568 0.502284 70.9809C0.444698 70.2611 0.646251 69.5412 0.819011 68.8502C0.847805 68.7062 0.847805 68.5047 0.905391 68.3895C0.991772 68.2167 0.991772 68.0152 0.962978 67.8712C0.905391 67.5545 1.10695 67.2954 1.16453 67.0074C1.19333 66.6907 1.3085 66.4028 1.27971 66.1148C1.42367 65.9997 1.53885 66.086 1.59643 65.8845C1.33729 65.5965 1.45247 65.2798 1.56764 64.9055C1.79799 64.1857 1.97075 63.437 2.05713 62.6596C2.08592 62.4293 2.1723 62.1989 2.25868 61.9686C2.46023 61.3927 2.66179 60.8168 2.69058 60.1258C2.77696 60.0682 2.89213 59.9818 2.97851 59.9243C3.00731 59.7515 2.80575 59.7803 2.89213 59.6363C3.00731 59.3484 3.18007 59.0605 3.15127 58.7149C3.15127 58.6573 3.15127 58.6286 3.18007 58.571C3.23765 58.427 3.61197 58.3982 3.32403 58.1391C3.61197 58.0239 3.38162 57.7072 3.58317 57.5344C3.69835 57.4192 3.72714 57.1601 3.75593 56.9873C3.78473 56.7858 3.9287 56.6418 3.95749 56.4403C3.98628 56.0372 4.41818 55.7492 4.24542 55.3461C4.30301 55.2021 4.44698 55.2597 4.53336 55.2021C4.47577 54.943 4.67732 54.2232 4.93646 53.8489C4.99405 53.8777 5.08043 53.9064 5.16681 53.964C5.1956 53.9064 5.2244 53.8489 5.2244 53.8201C5.13802 53.5897 4.93646 53.3882 5.1956 53.1578C5.2244 52.6107 5.48354 52.1213 5.71388 51.6606C5.91544 51.2575 6.03061 50.8543 6.14578 50.4224C6.26096 50.0193 6.63527 49.7314 6.63527 49.2995C7.06717 48.7524 7.06717 48.0902 7.49907 47.6007ZM11.9045 45.8443C11.7605 45.7003 12.0772 45.7291 11.9333 45.5852C11.7893 45.47 11.8757 45.2972 11.8181 45.1533C11.7893 45.0957 11.7605 45.0669 11.7029 45.1245C11.5877 45.2972 11.7605 45.5276 11.6165 45.7003C11.5301 45.7291 11.4438 45.7291 11.3862 45.7579C11.4726 46.0171 11.7893 46.1034 11.8469 46.3338C11.7317 46.7369 11.4438 46.6505 11.1558 46.6793C11.127 46.6793 11.0982 46.7369 11.0694 46.7657C11.1846 46.9097 11.3862 46.7369 11.4726 46.8521C11.7029 47.1976 11.2422 47.0824 11.2422 47.3703C11.2422 47.3416 11.415 47.3128 11.3286 47.4279C11.2134 47.5143 11.0119 47.3704 10.8967 47.5431C11.0119 47.975 10.8967 48.2917 10.4648 48.8388C10.4936 48.8676 10.5512 48.9252 10.58 48.954C10.5224 49.098 10.3208 48.9828 10.2632 49.1267C10.2056 49.2707 10.3784 49.3283 10.4072 49.4435C9.9753 50.1633 9.9753 50.1633 9.94651 50.5952C9.77375 50.7392 9.51461 50.9407 9.28426 51.1423C9.16909 51.3726 9.42823 51.4878 9.45702 51.6318C9.22668 51.8333 9.02512 52.0925 9.02512 52.4092C9.02512 52.6395 8.90995 52.7835 8.85236 52.9851C8.70839 53.417 8.53563 53.8489 8.39167 54.2808C8.36287 54.3671 8.33408 54.4823 8.50684 54.5111C8.65081 54.2808 8.76598 54.0792 8.85236 53.7913C9.02512 53.2154 9.22667 52.6395 9.48581 52.0925C9.74496 51.5454 9.83134 50.9407 10.2344 50.4512C10.3208 50.3361 10.3784 50.1345 10.436 49.9905C10.7239 49.1267 11.1558 48.2917 11.5589 47.4855C11.7893 47.0248 12.106 46.6217 12.1348 46.0746C12.1348 46.0171 12.106 45.9883 12.106 45.9307C12.0196 45.9019 11.9333 45.8443 11.9045 45.8443Z" fill="#1E1E1E"/>
<path d="M13.085 24.5086C13.1138 24.8254 12.7683 25.1133 12.9986 25.43C13.2002 25.5164 13.2578 25.3149 13.4017 25.2285C13.3729 24.7678 13.5457 24.3935 13.776 23.9904C14.0064 23.5873 14.3519 23.2705 14.5247 22.8098C14.6974 22.3779 15.0142 22.0036 15.2733 21.6293C15.5324 21.2262 15.8204 20.8519 16.0795 20.4776C16.2811 20.1608 16.4826 19.8441 16.713 19.5562C17.2888 18.8939 17.7783 18.1741 18.3254 17.4831C18.6133 17.1087 18.9301 16.8208 19.218 16.4465C19.7075 15.813 20.3121 15.2948 20.8016 14.6613C21.3199 13.9991 21.9822 13.452 22.5292 12.7897C23.7386 11.3213 25.1782 10.0832 26.5027 8.70109C26.7043 8.47074 26.9346 8.26919 27.165 8.03884C27.6257 7.54935 28.0863 7.00228 28.7486 6.77193C29.0077 6.68555 28.8926 6.39762 29.1517 6.25365C29.3821 6.13848 29.6412 5.90813 29.8427 5.64899C30.0155 5.38985 30.3034 5.21709 30.5338 5.01554C30.7929 4.7564 31.1097 4.52605 31.3976 4.26691C31.6855 4.23811 32.0022 4.18053 32.2902 4.15173C32.3478 4.15173 32.3766 4.06535 32.4054 4.00777C32.3478 3.8638 32.0886 4.03656 32.1174 3.71983C32.319 3.46069 32.5781 3.17276 33.01 3C33.0964 3.02879 33.0388 3.17276 33.0676 3.23035C33.1252 3.28793 33.2404 3.34552 33.0964 3.46069C32.9524 3.57587 33.1828 3.60466 33.1828 3.69104C33.01 3.8638 32.7797 3.69104 32.6069 3.77742C32.3766 4.00777 32.7797 4.06535 32.6933 4.26691C32.5493 4.41087 32.319 4.49725 32.0886 4.58364C32.0886 4.67002 32.0886 4.78519 32.0886 4.87157C31.7143 5.27468 31.0809 5.36106 30.9081 5.93692C30.8217 6.22486 30.4186 6.13848 30.3322 6.484C30.2746 6.71434 29.9579 6.77193 29.7276 6.8871C29.5836 6.9159 29.5548 6.77193 29.4396 6.74314C29.2669 7.03107 29.6124 7.08866 29.6988 7.29021C29.5836 7.40539 29.4396 7.54935 29.3245 7.66453C29.2669 7.60694 29.2093 7.57815 29.1517 7.52056C29.0077 7.69332 28.7198 7.66453 28.6046 7.89487C28.547 8.06763 28.6622 8.12522 28.7486 8.2116C28.6622 8.29798 28.6046 8.35557 28.5183 8.44195C28.4607 8.38436 28.4031 8.35557 28.3455 8.29798C28.2303 8.70109 28.2303 8.70109 27.9136 9.04661C27.712 9.04661 27.9136 8.72988 27.5393 8.75867C27.3377 8.84505 27.5105 9.42092 27.0498 9.42092C27.1074 9.5073 27.165 9.56489 27.2513 9.70885C26.9634 9.9392 26.7331 10.2271 26.4739 10.4575C26.1572 10.6878 26.0132 11.0333 25.6965 11.2637C25.5813 11.2637 25.4086 11.2637 25.207 11.2637C25.207 11.5228 24.8903 11.638 24.8615 11.8684C24.7463 12.6458 24.1129 13.0201 23.6234 13.452C23.4506 13.6248 23.1915 13.7111 23.1339 13.9703C23.1051 14.0567 23.0763 14.1142 22.9899 14.1142C22.5868 14.1142 22.3853 14.3446 22.3565 14.7189C22.3277 14.9205 22.2125 15.0356 22.011 15.0356C21.6654 15.0356 21.5791 15.3236 21.4351 15.4675C21.4351 15.7555 21.6942 15.5827 21.7518 15.7555C21.5503 15.7843 21.5503 16.2162 21.2047 15.9858C21.1759 15.9858 21.0032 16.101 21.0032 16.1874C21.0032 16.4753 20.888 16.6768 20.6577 16.8208C20.7152 17.1951 20.4273 17.3967 20.197 17.5694C19.909 17.8286 19.7075 18.1741 19.5059 18.462C19.2468 18.8363 18.9589 19.1531 18.5557 19.3834C18.4406 19.441 18.3542 19.5562 18.2678 19.6138C18.2966 19.9305 18.239 20.1321 18.0663 20.3624C17.4616 21.111 16.8569 21.8597 16.3962 22.7235C16.2523 23.0114 15.9643 23.1266 15.6764 23.1554C15.4749 23.1841 15.4173 23.3281 15.3309 23.3857C15.5036 23.8752 14.9566 24.2207 15.1869 24.6526C14.9566 24.7966 14.7838 24.6814 14.5823 24.7678C14.4671 25.1709 14.3519 25.6316 14.2079 26.0635C14.2655 26.2075 14.4671 26.0635 14.5247 26.2938C14.4959 26.4666 14.2367 26.6681 14.4095 27.0425C14.2367 26.8697 14.1792 26.8409 14.1216 26.7833C13.9776 26.8409 14.1216 27.0425 13.9488 27.1C13.7185 27.1288 13.6609 26.8985 13.5457 26.8121C13.3441 26.9273 13.1138 27.0137 12.9122 27.1288C12.7107 26.9561 12.8259 26.8409 12.941 26.7257C12.8547 26.6106 12.7971 26.4666 12.5955 26.4666C12.394 26.4666 12.5667 26.6969 12.394 26.7833C12.0197 26.3802 12.5379 25.9195 12.25 25.4876C12.4228 25.3724 12.5379 25.2861 12.6531 25.1709C12.5955 25.0845 12.5379 25.0557 12.4803 24.9981C12.5955 24.7678 12.7107 24.5086 12.8547 24.2783C12.8547 24.2783 12.9122 24.2783 12.941 24.2783C13.0274 24.3647 13.085 24.4223 13.085 24.5086Z" fill="#1E1E1E"/>
<path d="M13.085 24.5088C13.085 24.3936 13.0274 24.3361 12.941 24.3648C12.8834 23.789 13.2577 23.3859 13.5169 22.954C13.92 22.2341 14.4095 21.5431 14.8701 20.8521C15.2157 20.3338 15.6188 19.8443 15.9931 19.3548C16.5114 18.6638 17.0872 18.0591 17.5479 17.3393C17.8359 16.9362 18.2102 16.5906 18.5557 16.1875C19.0164 15.6405 19.4195 15.0358 19.9666 14.5751C20.2545 14.316 20.5424 14.0856 20.7152 13.7113C20.8016 13.5385 20.9455 13.3946 21.1759 13.337C21.2911 13.3082 21.3199 13.0491 21.4638 12.9051C22.7019 11.5518 23.9688 10.2273 25.2933 8.9316C26.0996 8.12539 26.9922 7.40555 27.7984 6.62813C28.4606 5.99468 29.1517 5.41881 29.8715 4.87174C30.1594 4.67018 30.361 4.32466 30.7641 4.23828C30.9081 4.38225 30.8793 4.52622 30.7353 4.5838C29.9579 5.07329 29.2668 5.67795 28.6622 6.36899C28.4606 6.59934 28.1439 6.68572 27.9423 6.91606C27.7696 7.11762 27.5968 7.34797 27.3089 7.43435C27.1361 7.49193 26.9346 7.69349 26.877 7.86625C26.7618 8.15418 26.5027 8.26935 26.3299 8.4997C26.1571 8.73005 25.9268 8.84522 25.7252 9.04677C25.4373 9.30591 25.2933 9.70902 24.8902 9.85299C24.8614 10.2561 24.4007 10.2561 24.2856 10.5152C24.1416 10.832 23.8537 10.9183 23.6521 11.1487C23.4794 11.379 23.3066 11.6094 23.0763 11.8109C22.8459 12.0125 22.6156 12.2428 22.414 12.4732C22.1837 12.7035 21.9533 12.9051 21.7518 13.1354C21.5502 13.3658 21.3774 13.6249 21.1759 13.8265C20.744 14.316 20.3985 14.8342 19.9378 15.2949C19.4195 15.7556 19.0164 16.3603 18.5845 16.9074C18.1526 17.4544 17.7495 18.0591 17.26 18.5486C16.8857 18.9229 16.7417 19.4412 16.3098 19.7291C16.281 20.1034 15.8779 20.2762 15.7339 20.5929C15.6188 20.8233 15.4172 21.14 15.1293 21.284C14.9853 21.3703 14.9853 21.7734 14.8414 21.831C14.5534 21.9174 14.6398 22.119 14.5534 22.2629C14.4958 22.3781 14.4382 22.5509 14.3519 22.6372C13.8912 23.1843 13.5744 23.8178 13.2865 24.48C13.2001 24.5088 13.1425 24.5088 13.085 24.5088Z" fill="#1E1E1E"/>
</svg>
